<mxfile host="app.diagrams.net" agent="Mozilla/5.0 (Macintosh; Intel Mac OS X 10_15_7) AppleWebKit/537.36 (KHTML, like Gecko) Chrome/127.0.0.0 Safari/537.36" version="24.7.7">
  <diagram name="Page-1" id="GN8kj4kmSvlsmQmHZ82l">
    <mxGraphModel dx="1426" dy="1064" grid="1" gridSize="10" guides="1" tooltips="1" connect="1" arrows="1" fold="1" page="1" pageScale="1" pageWidth="850" pageHeight="1100" background="#ffffff" math="0" shadow="0">
      <root>
        <mxCell id="0" />
        <mxCell id="1" parent="0" />
        <mxCell id="Rq11PXfO91AjFJ7hU85B-351" value="(c) shingaridavesh@gmail.com" style="text;html=1;align=center;verticalAlign=middle;whiteSpace=wrap;rounded=0;fontSize=36;fontColor=#f2eeee;rotation=-42;" vertex="1" parent="1">
          <mxGeometry x="190" y="740" width="870" height="30" as="geometry" />
        </mxCell>
        <mxCell id="Rq11PXfO91AjFJ7hU85B-1" value="" style="endArrow=classic;html=1;rounded=0;strokeColor=#0a0a0a;strokeWidth=3;endFill=1;" edge="1" parent="1">
          <mxGeometry width="50" height="50" relative="1" as="geometry">
            <mxPoint x="230" y="520" as="sourcePoint" />
            <mxPoint x="250" y="480" as="targetPoint" />
          </mxGeometry>
        </mxCell>
        <mxCell id="Rq11PXfO91AjFJ7hU85B-2" value="" style="endArrow=none;html=1;rounded=0;strokeColor=#0a0a0a;strokeWidth=3;" edge="1" parent="1">
          <mxGeometry width="50" height="50" relative="1" as="geometry">
            <mxPoint x="250" y="480" as="sourcePoint" />
            <mxPoint x="290" y="480" as="targetPoint" />
          </mxGeometry>
        </mxCell>
        <mxCell id="Rq11PXfO91AjFJ7hU85B-3" value="" style="endArrow=none;html=1;rounded=0;strokeColor=#0a0a0a;strokeWidth=3;" edge="1" parent="1">
          <mxGeometry width="50" height="50" relative="1" as="geometry">
            <mxPoint x="310" y="520" as="sourcePoint" />
            <mxPoint x="290" y="480" as="targetPoint" />
          </mxGeometry>
        </mxCell>
        <mxCell id="Rq11PXfO91AjFJ7hU85B-4" value="" style="endArrow=none;html=1;rounded=0;strokeColor=#0a0a0a;strokeWidth=3;" edge="1" parent="1">
          <mxGeometry width="50" height="50" relative="1" as="geometry">
            <mxPoint x="310" y="520" as="sourcePoint" />
            <mxPoint x="350" y="520" as="targetPoint" />
          </mxGeometry>
        </mxCell>
        <mxCell id="Rq11PXfO91AjFJ7hU85B-5" value="" style="endArrow=classic;html=1;rounded=0;strokeColor=#0a0a0a;strokeWidth=3;endFill=1;" edge="1" parent="1">
          <mxGeometry width="50" height="50" relative="1" as="geometry">
            <mxPoint x="350" y="520" as="sourcePoint" />
            <mxPoint x="370" y="480" as="targetPoint" />
          </mxGeometry>
        </mxCell>
        <mxCell id="Rq11PXfO91AjFJ7hU85B-21" value="" style="endArrow=none;html=1;rounded=0;strokeColor=#0a0a0a;strokeWidth=3;" edge="1" parent="1">
          <mxGeometry width="50" height="50" relative="1" as="geometry">
            <mxPoint x="370" y="480" as="sourcePoint" />
            <mxPoint x="410" y="480" as="targetPoint" />
          </mxGeometry>
        </mxCell>
        <mxCell id="Rq11PXfO91AjFJ7hU85B-22" value="" style="endArrow=none;html=1;rounded=0;strokeColor=#0a0a0a;strokeWidth=3;" edge="1" parent="1">
          <mxGeometry width="50" height="50" relative="1" as="geometry">
            <mxPoint x="430" y="520" as="sourcePoint" />
            <mxPoint x="410" y="480" as="targetPoint" />
          </mxGeometry>
        </mxCell>
        <mxCell id="Rq11PXfO91AjFJ7hU85B-23" value="" style="endArrow=none;html=1;rounded=0;strokeColor=#0a0a0a;strokeWidth=3;" edge="1" parent="1">
          <mxGeometry width="50" height="50" relative="1" as="geometry">
            <mxPoint x="430" y="520" as="sourcePoint" />
            <mxPoint x="470" y="520" as="targetPoint" />
          </mxGeometry>
        </mxCell>
        <mxCell id="Rq11PXfO91AjFJ7hU85B-24" value="" style="endArrow=classic;html=1;rounded=0;strokeColor=#0a0a0a;strokeWidth=3;endFill=1;" edge="1" parent="1">
          <mxGeometry width="50" height="50" relative="1" as="geometry">
            <mxPoint x="470" y="520" as="sourcePoint" />
            <mxPoint x="490" y="480" as="targetPoint" />
          </mxGeometry>
        </mxCell>
        <mxCell id="Rq11PXfO91AjFJ7hU85B-25" value="" style="endArrow=none;html=1;rounded=0;strokeColor=#0a0a0a;strokeWidth=3;" edge="1" parent="1">
          <mxGeometry width="50" height="50" relative="1" as="geometry">
            <mxPoint x="490" y="480" as="sourcePoint" />
            <mxPoint x="530" y="480" as="targetPoint" />
          </mxGeometry>
        </mxCell>
        <mxCell id="Rq11PXfO91AjFJ7hU85B-26" value="" style="endArrow=none;html=1;rounded=0;strokeColor=#0a0a0a;strokeWidth=3;" edge="1" parent="1">
          <mxGeometry width="50" height="50" relative="1" as="geometry">
            <mxPoint x="550" y="520" as="sourcePoint" />
            <mxPoint x="530" y="480" as="targetPoint" />
          </mxGeometry>
        </mxCell>
        <mxCell id="Rq11PXfO91AjFJ7hU85B-27" value="" style="endArrow=none;html=1;rounded=0;strokeColor=#0a0a0a;strokeWidth=3;" edge="1" parent="1">
          <mxGeometry width="50" height="50" relative="1" as="geometry">
            <mxPoint x="550" y="520" as="sourcePoint" />
            <mxPoint x="590" y="520" as="targetPoint" />
          </mxGeometry>
        </mxCell>
        <mxCell id="Rq11PXfO91AjFJ7hU85B-28" value="" style="endArrow=classic;html=1;rounded=0;strokeColor=#0a0a0a;strokeWidth=3;endFill=1;" edge="1" parent="1">
          <mxGeometry width="50" height="50" relative="1" as="geometry">
            <mxPoint x="590" y="520" as="sourcePoint" />
            <mxPoint x="610" y="480" as="targetPoint" />
          </mxGeometry>
        </mxCell>
        <mxCell id="Rq11PXfO91AjFJ7hU85B-29" value="" style="endArrow=none;html=1;rounded=0;strokeColor=#0a0a0a;strokeWidth=3;" edge="1" parent="1">
          <mxGeometry width="50" height="50" relative="1" as="geometry">
            <mxPoint x="610" y="480" as="sourcePoint" />
            <mxPoint x="650" y="480" as="targetPoint" />
          </mxGeometry>
        </mxCell>
        <mxCell id="Rq11PXfO91AjFJ7hU85B-30" value="" style="endArrow=none;html=1;rounded=0;strokeColor=#0a0a0a;strokeWidth=3;" edge="1" parent="1">
          <mxGeometry width="50" height="50" relative="1" as="geometry">
            <mxPoint x="670" y="520" as="sourcePoint" />
            <mxPoint x="650" y="480" as="targetPoint" />
          </mxGeometry>
        </mxCell>
        <mxCell id="Rq11PXfO91AjFJ7hU85B-31" value="" style="endArrow=none;html=1;rounded=0;strokeColor=#0a0a0a;strokeWidth=3;" edge="1" parent="1">
          <mxGeometry width="50" height="50" relative="1" as="geometry">
            <mxPoint x="670" y="520" as="sourcePoint" />
            <mxPoint x="710" y="520" as="targetPoint" />
          </mxGeometry>
        </mxCell>
        <mxCell id="Rq11PXfO91AjFJ7hU85B-32" value="" style="endArrow=classic;html=1;rounded=0;strokeColor=#0a0a0a;strokeWidth=3;endFill=1;" edge="1" parent="1">
          <mxGeometry width="50" height="50" relative="1" as="geometry">
            <mxPoint x="710" y="520" as="sourcePoint" />
            <mxPoint x="730" y="480" as="targetPoint" />
          </mxGeometry>
        </mxCell>
        <mxCell id="Rq11PXfO91AjFJ7hU85B-33" value="" style="endArrow=none;html=1;rounded=0;strokeColor=#0a0a0a;strokeWidth=3;" edge="1" parent="1">
          <mxGeometry width="50" height="50" relative="1" as="geometry">
            <mxPoint x="190" y="520" as="sourcePoint" />
            <mxPoint x="230" y="520" as="targetPoint" />
          </mxGeometry>
        </mxCell>
        <mxCell id="Rq11PXfO91AjFJ7hU85B-34" value="" style="endArrow=none;html=1;rounded=0;strokeColor=#0a0a0a;strokeWidth=3;dashed=1;" edge="1" parent="1">
          <mxGeometry width="50" height="50" relative="1" as="geometry">
            <mxPoint x="191" y="480" as="sourcePoint" />
            <mxPoint x="231" y="480" as="targetPoint" />
          </mxGeometry>
        </mxCell>
        <mxCell id="Rq11PXfO91AjFJ7hU85B-35" value="" style="endArrow=none;html=1;rounded=0;strokeColor=#0a0a0a;strokeWidth=3;dashed=1;" edge="1" parent="1">
          <mxGeometry width="50" height="50" relative="1" as="geometry">
            <mxPoint x="251" y="520" as="sourcePoint" />
            <mxPoint x="231" y="480" as="targetPoint" />
          </mxGeometry>
        </mxCell>
        <mxCell id="Rq11PXfO91AjFJ7hU85B-36" value="" style="endArrow=none;html=1;rounded=0;strokeColor=#0a0a0a;strokeWidth=3;dashed=1;" edge="1" parent="1">
          <mxGeometry width="50" height="50" relative="1" as="geometry">
            <mxPoint x="251" y="520" as="sourcePoint" />
            <mxPoint x="291" y="520" as="targetPoint" />
          </mxGeometry>
        </mxCell>
        <mxCell id="Rq11PXfO91AjFJ7hU85B-37" value="" style="endArrow=none;html=1;rounded=0;strokeColor=#0a0a0a;strokeWidth=3;dashed=1;" edge="1" parent="1">
          <mxGeometry width="50" height="50" relative="1" as="geometry">
            <mxPoint x="291" y="520" as="sourcePoint" />
            <mxPoint x="311" y="480" as="targetPoint" />
          </mxGeometry>
        </mxCell>
        <mxCell id="Rq11PXfO91AjFJ7hU85B-38" value="" style="endArrow=none;html=1;rounded=0;strokeColor=#0a0a0a;strokeWidth=3;dashed=1;" edge="1" parent="1">
          <mxGeometry width="50" height="50" relative="1" as="geometry">
            <mxPoint x="311" y="480" as="sourcePoint" />
            <mxPoint x="351" y="480" as="targetPoint" />
          </mxGeometry>
        </mxCell>
        <mxCell id="Rq11PXfO91AjFJ7hU85B-39" value="" style="endArrow=none;html=1;rounded=0;strokeColor=#0a0a0a;strokeWidth=3;dashed=1;" edge="1" parent="1">
          <mxGeometry width="50" height="50" relative="1" as="geometry">
            <mxPoint x="371" y="520" as="sourcePoint" />
            <mxPoint x="351" y="480" as="targetPoint" />
          </mxGeometry>
        </mxCell>
        <mxCell id="Rq11PXfO91AjFJ7hU85B-40" value="" style="endArrow=none;html=1;rounded=0;strokeColor=#0a0a0a;strokeWidth=3;dashed=1;" edge="1" parent="1">
          <mxGeometry width="50" height="50" relative="1" as="geometry">
            <mxPoint x="371" y="520" as="sourcePoint" />
            <mxPoint x="411" y="520" as="targetPoint" />
          </mxGeometry>
        </mxCell>
        <mxCell id="Rq11PXfO91AjFJ7hU85B-41" value="" style="endArrow=none;html=1;rounded=0;strokeColor=#0a0a0a;strokeWidth=3;dashed=1;" edge="1" parent="1">
          <mxGeometry width="50" height="50" relative="1" as="geometry">
            <mxPoint x="411" y="520" as="sourcePoint" />
            <mxPoint x="431" y="480" as="targetPoint" />
          </mxGeometry>
        </mxCell>
        <mxCell id="Rq11PXfO91AjFJ7hU85B-42" value="" style="endArrow=none;html=1;rounded=0;strokeColor=#0a0a0a;strokeWidth=3;dashed=1;" edge="1" parent="1">
          <mxGeometry width="50" height="50" relative="1" as="geometry">
            <mxPoint x="431" y="480" as="sourcePoint" />
            <mxPoint x="471" y="480" as="targetPoint" />
          </mxGeometry>
        </mxCell>
        <mxCell id="Rq11PXfO91AjFJ7hU85B-43" value="" style="endArrow=none;html=1;rounded=0;strokeColor=#0a0a0a;strokeWidth=3;dashed=1;" edge="1" parent="1">
          <mxGeometry width="50" height="50" relative="1" as="geometry">
            <mxPoint x="491" y="520" as="sourcePoint" />
            <mxPoint x="471" y="480" as="targetPoint" />
          </mxGeometry>
        </mxCell>
        <mxCell id="Rq11PXfO91AjFJ7hU85B-44" value="" style="endArrow=none;html=1;rounded=0;strokeColor=#0a0a0a;strokeWidth=3;dashed=1;" edge="1" parent="1">
          <mxGeometry width="50" height="50" relative="1" as="geometry">
            <mxPoint x="491" y="520" as="sourcePoint" />
            <mxPoint x="531" y="520" as="targetPoint" />
          </mxGeometry>
        </mxCell>
        <mxCell id="Rq11PXfO91AjFJ7hU85B-45" value="" style="endArrow=none;html=1;rounded=0;strokeColor=#0a0a0a;strokeWidth=3;dashed=1;" edge="1" parent="1">
          <mxGeometry width="50" height="50" relative="1" as="geometry">
            <mxPoint x="531" y="520" as="sourcePoint" />
            <mxPoint x="551" y="480" as="targetPoint" />
          </mxGeometry>
        </mxCell>
        <mxCell id="Rq11PXfO91AjFJ7hU85B-46" value="" style="endArrow=none;html=1;rounded=0;strokeColor=#0a0a0a;strokeWidth=3;dashed=1;" edge="1" parent="1">
          <mxGeometry width="50" height="50" relative="1" as="geometry">
            <mxPoint x="551" y="480" as="sourcePoint" />
            <mxPoint x="591" y="480" as="targetPoint" />
          </mxGeometry>
        </mxCell>
        <mxCell id="Rq11PXfO91AjFJ7hU85B-47" value="" style="endArrow=none;html=1;rounded=0;strokeColor=#0a0a0a;strokeWidth=3;dashed=1;" edge="1" parent="1">
          <mxGeometry width="50" height="50" relative="1" as="geometry">
            <mxPoint x="611" y="520" as="sourcePoint" />
            <mxPoint x="591" y="480" as="targetPoint" />
          </mxGeometry>
        </mxCell>
        <mxCell id="Rq11PXfO91AjFJ7hU85B-48" value="" style="endArrow=none;html=1;rounded=0;strokeColor=#0a0a0a;strokeWidth=3;dashed=1;" edge="1" parent="1">
          <mxGeometry width="50" height="50" relative="1" as="geometry">
            <mxPoint x="611" y="520" as="sourcePoint" />
            <mxPoint x="651" y="520" as="targetPoint" />
          </mxGeometry>
        </mxCell>
        <mxCell id="Rq11PXfO91AjFJ7hU85B-49" value="" style="endArrow=none;html=1;rounded=0;strokeColor=#0a0a0a;strokeWidth=3;dashed=1;" edge="1" parent="1">
          <mxGeometry width="50" height="50" relative="1" as="geometry">
            <mxPoint x="651" y="520" as="sourcePoint" />
            <mxPoint x="671" y="480" as="targetPoint" />
          </mxGeometry>
        </mxCell>
        <mxCell id="Rq11PXfO91AjFJ7hU85B-50" value="" style="endArrow=none;html=1;rounded=0;strokeColor=#0a0a0a;strokeWidth=3;dashed=1;" edge="1" parent="1">
          <mxGeometry width="50" height="50" relative="1" as="geometry">
            <mxPoint x="670" y="480" as="sourcePoint" />
            <mxPoint x="710" y="480" as="targetPoint" />
          </mxGeometry>
        </mxCell>
        <mxCell id="Rq11PXfO91AjFJ7hU85B-51" value="" style="endArrow=none;html=1;rounded=0;strokeColor=#0a0a0a;strokeWidth=3;dashed=1;" edge="1" parent="1">
          <mxGeometry width="50" height="50" relative="1" as="geometry">
            <mxPoint x="730" y="520" as="sourcePoint" />
            <mxPoint x="710" y="480" as="targetPoint" />
          </mxGeometry>
        </mxCell>
        <mxCell id="Rq11PXfO91AjFJ7hU85B-53" value="" style="endArrow=none;html=1;rounded=0;strokeColor=#160160;strokeWidth=3;" edge="1" parent="1">
          <mxGeometry width="50" height="50" relative="1" as="geometry">
            <mxPoint x="219" y="580" as="sourcePoint" />
            <mxPoint x="199" y="540" as="targetPoint" />
          </mxGeometry>
        </mxCell>
        <mxCell id="Rq11PXfO91AjFJ7hU85B-54" value="" style="endArrow=none;html=1;rounded=0;strokeColor=#160160;strokeWidth=3;" edge="1" parent="1">
          <mxGeometry width="50" height="50" relative="1" as="geometry">
            <mxPoint x="219" y="580" as="sourcePoint" />
            <mxPoint x="259" y="580" as="targetPoint" />
          </mxGeometry>
        </mxCell>
        <mxCell id="Rq11PXfO91AjFJ7hU85B-55" value="" style="endArrow=none;html=1;rounded=0;strokeColor=#160160;strokeWidth=3;" edge="1" parent="1">
          <mxGeometry width="50" height="50" relative="1" as="geometry">
            <mxPoint x="259" y="580" as="sourcePoint" />
            <mxPoint x="279" y="540" as="targetPoint" />
          </mxGeometry>
        </mxCell>
        <mxCell id="Rq11PXfO91AjFJ7hU85B-56" value="" style="endArrow=none;html=1;rounded=0;strokeColor=#160160;strokeWidth=3;" edge="1" parent="1">
          <mxGeometry width="50" height="50" relative="1" as="geometry">
            <mxPoint x="279" y="540" as="sourcePoint" />
            <mxPoint x="319" y="540" as="targetPoint" />
          </mxGeometry>
        </mxCell>
        <mxCell id="Rq11PXfO91AjFJ7hU85B-57" value="" style="endArrow=none;html=1;rounded=0;strokeColor=#160160;strokeWidth=3;" edge="1" parent="1">
          <mxGeometry width="50" height="50" relative="1" as="geometry">
            <mxPoint x="339" y="580" as="sourcePoint" />
            <mxPoint x="319" y="540" as="targetPoint" />
          </mxGeometry>
        </mxCell>
        <mxCell id="Rq11PXfO91AjFJ7hU85B-58" value="" style="endArrow=none;html=1;rounded=0;strokeColor=#160160;strokeWidth=3;" edge="1" parent="1">
          <mxGeometry width="50" height="50" relative="1" as="geometry">
            <mxPoint x="339" y="580" as="sourcePoint" />
            <mxPoint x="379" y="580" as="targetPoint" />
          </mxGeometry>
        </mxCell>
        <mxCell id="Rq11PXfO91AjFJ7hU85B-59" value="" style="endArrow=none;html=1;rounded=0;strokeColor=#160160;strokeWidth=3;" edge="1" parent="1">
          <mxGeometry width="50" height="50" relative="1" as="geometry">
            <mxPoint x="379" y="580" as="sourcePoint" />
            <mxPoint x="399" y="540" as="targetPoint" />
          </mxGeometry>
        </mxCell>
        <mxCell id="Rq11PXfO91AjFJ7hU85B-60" value="" style="endArrow=none;html=1;rounded=0;strokeColor=#160160;strokeWidth=3;" edge="1" parent="1">
          <mxGeometry width="50" height="50" relative="1" as="geometry">
            <mxPoint x="399" y="540" as="sourcePoint" />
            <mxPoint x="439" y="540" as="targetPoint" />
          </mxGeometry>
        </mxCell>
        <mxCell id="Rq11PXfO91AjFJ7hU85B-61" value="" style="endArrow=none;html=1;rounded=0;strokeColor=#160160;strokeWidth=3;" edge="1" parent="1">
          <mxGeometry width="50" height="50" relative="1" as="geometry">
            <mxPoint x="459" y="580" as="sourcePoint" />
            <mxPoint x="439" y="540" as="targetPoint" />
          </mxGeometry>
        </mxCell>
        <mxCell id="Rq11PXfO91AjFJ7hU85B-62" value="" style="endArrow=none;html=1;rounded=0;strokeColor=#160160;strokeWidth=3;" edge="1" parent="1">
          <mxGeometry width="50" height="50" relative="1" as="geometry">
            <mxPoint x="459" y="580" as="sourcePoint" />
            <mxPoint x="499" y="580" as="targetPoint" />
          </mxGeometry>
        </mxCell>
        <mxCell id="Rq11PXfO91AjFJ7hU85B-63" value="" style="endArrow=none;html=1;rounded=0;strokeColor=#160160;strokeWidth=3;" edge="1" parent="1">
          <mxGeometry width="50" height="50" relative="1" as="geometry">
            <mxPoint x="499" y="580" as="sourcePoint" />
            <mxPoint x="519" y="540" as="targetPoint" />
          </mxGeometry>
        </mxCell>
        <mxCell id="Rq11PXfO91AjFJ7hU85B-64" value="" style="endArrow=none;html=1;rounded=0;strokeColor=#160160;strokeWidth=3;" edge="1" parent="1">
          <mxGeometry width="50" height="50" relative="1" as="geometry">
            <mxPoint x="519" y="540" as="sourcePoint" />
            <mxPoint x="559" y="540" as="targetPoint" />
          </mxGeometry>
        </mxCell>
        <mxCell id="Rq11PXfO91AjFJ7hU85B-66" value="" style="endArrow=none;html=1;rounded=0;strokeColor=#160160;strokeWidth=3;" edge="1" parent="1">
          <mxGeometry width="50" height="50" relative="1" as="geometry">
            <mxPoint x="200" y="580" as="sourcePoint" />
            <mxPoint x="220" y="540" as="targetPoint" />
          </mxGeometry>
        </mxCell>
        <mxCell id="Rq11PXfO91AjFJ7hU85B-67" value="" style="endArrow=none;html=1;rounded=0;strokeColor=#160160;strokeWidth=3;" edge="1" parent="1">
          <mxGeometry width="50" height="50" relative="1" as="geometry">
            <mxPoint x="220" y="540" as="sourcePoint" />
            <mxPoint x="260" y="540" as="targetPoint" />
          </mxGeometry>
        </mxCell>
        <mxCell id="Rq11PXfO91AjFJ7hU85B-68" value="" style="endArrow=none;html=1;rounded=0;strokeColor=#160160;strokeWidth=3;" edge="1" parent="1">
          <mxGeometry width="50" height="50" relative="1" as="geometry">
            <mxPoint x="280" y="580" as="sourcePoint" />
            <mxPoint x="260" y="540" as="targetPoint" />
          </mxGeometry>
        </mxCell>
        <mxCell id="Rq11PXfO91AjFJ7hU85B-69" value="" style="endArrow=none;html=1;rounded=0;strokeColor=#160160;strokeWidth=3;" edge="1" parent="1">
          <mxGeometry width="50" height="50" relative="1" as="geometry">
            <mxPoint x="280" y="580" as="sourcePoint" />
            <mxPoint x="320" y="580" as="targetPoint" />
          </mxGeometry>
        </mxCell>
        <mxCell id="Rq11PXfO91AjFJ7hU85B-70" value="" style="endArrow=none;html=1;rounded=0;strokeColor=#160160;strokeWidth=3;" edge="1" parent="1">
          <mxGeometry width="50" height="50" relative="1" as="geometry">
            <mxPoint x="320" y="580" as="sourcePoint" />
            <mxPoint x="340" y="540" as="targetPoint" />
          </mxGeometry>
        </mxCell>
        <mxCell id="Rq11PXfO91AjFJ7hU85B-71" value="" style="endArrow=none;html=1;rounded=0;strokeColor=#160160;strokeWidth=3;" edge="1" parent="1">
          <mxGeometry width="50" height="50" relative="1" as="geometry">
            <mxPoint x="340" y="540" as="sourcePoint" />
            <mxPoint x="380" y="540" as="targetPoint" />
          </mxGeometry>
        </mxCell>
        <mxCell id="Rq11PXfO91AjFJ7hU85B-72" value="" style="endArrow=none;html=1;rounded=0;strokeColor=#160160;strokeWidth=3;" edge="1" parent="1">
          <mxGeometry width="50" height="50" relative="1" as="geometry">
            <mxPoint x="400" y="580" as="sourcePoint" />
            <mxPoint x="380" y="540" as="targetPoint" />
          </mxGeometry>
        </mxCell>
        <mxCell id="Rq11PXfO91AjFJ7hU85B-73" value="" style="endArrow=none;html=1;rounded=0;strokeColor=#160160;strokeWidth=3;" edge="1" parent="1">
          <mxGeometry width="50" height="50" relative="1" as="geometry">
            <mxPoint x="400" y="580" as="sourcePoint" />
            <mxPoint x="440" y="580" as="targetPoint" />
          </mxGeometry>
        </mxCell>
        <mxCell id="Rq11PXfO91AjFJ7hU85B-74" value="" style="endArrow=none;html=1;rounded=0;strokeColor=#160160;strokeWidth=3;" edge="1" parent="1">
          <mxGeometry width="50" height="50" relative="1" as="geometry">
            <mxPoint x="440" y="580" as="sourcePoint" />
            <mxPoint x="460" y="540" as="targetPoint" />
          </mxGeometry>
        </mxCell>
        <mxCell id="Rq11PXfO91AjFJ7hU85B-75" value="" style="endArrow=none;html=1;rounded=0;strokeColor=#160160;strokeWidth=3;" edge="1" parent="1">
          <mxGeometry width="50" height="50" relative="1" as="geometry">
            <mxPoint x="460" y="540" as="sourcePoint" />
            <mxPoint x="500" y="540" as="targetPoint" />
          </mxGeometry>
        </mxCell>
        <mxCell id="Rq11PXfO91AjFJ7hU85B-76" value="" style="endArrow=none;html=1;rounded=0;strokeColor=#160160;strokeWidth=3;" edge="1" parent="1">
          <mxGeometry width="50" height="50" relative="1" as="geometry">
            <mxPoint x="520" y="580" as="sourcePoint" />
            <mxPoint x="500" y="540" as="targetPoint" />
          </mxGeometry>
        </mxCell>
        <mxCell id="Rq11PXfO91AjFJ7hU85B-77" value="" style="endArrow=none;html=1;rounded=0;strokeColor=#160160;strokeWidth=3;" edge="1" parent="1">
          <mxGeometry width="50" height="50" relative="1" as="geometry">
            <mxPoint x="520" y="580" as="sourcePoint" />
            <mxPoint x="560" y="580" as="targetPoint" />
          </mxGeometry>
        </mxCell>
        <mxCell id="Rq11PXfO91AjFJ7hU85B-78" value="" style="endArrow=none;html=1;rounded=0;strokeColor=#160160;strokeWidth=3;" edge="1" parent="1">
          <mxGeometry width="50" height="50" relative="1" as="geometry">
            <mxPoint x="578" y="580" as="sourcePoint" />
            <mxPoint x="558" y="540" as="targetPoint" />
          </mxGeometry>
        </mxCell>
        <mxCell id="Rq11PXfO91AjFJ7hU85B-79" value="" style="endArrow=none;html=1;rounded=0;strokeColor=#160160;strokeWidth=3;" edge="1" parent="1">
          <mxGeometry width="50" height="50" relative="1" as="geometry">
            <mxPoint x="578" y="580" as="sourcePoint" />
            <mxPoint x="618" y="580" as="targetPoint" />
          </mxGeometry>
        </mxCell>
        <mxCell id="Rq11PXfO91AjFJ7hU85B-80" value="" style="endArrow=none;html=1;rounded=0;strokeColor=#160160;strokeWidth=3;" edge="1" parent="1">
          <mxGeometry width="50" height="50" relative="1" as="geometry">
            <mxPoint x="618" y="580" as="sourcePoint" />
            <mxPoint x="638" y="540" as="targetPoint" />
          </mxGeometry>
        </mxCell>
        <mxCell id="Rq11PXfO91AjFJ7hU85B-81" value="" style="endArrow=none;html=1;rounded=0;strokeColor=#160160;strokeWidth=3;" edge="1" parent="1">
          <mxGeometry width="50" height="50" relative="1" as="geometry">
            <mxPoint x="638" y="540" as="sourcePoint" />
            <mxPoint x="678" y="540" as="targetPoint" />
          </mxGeometry>
        </mxCell>
        <mxCell id="Rq11PXfO91AjFJ7hU85B-82" value="" style="endArrow=none;html=1;rounded=0;strokeColor=#160160;strokeWidth=3;" edge="1" parent="1">
          <mxGeometry width="50" height="50" relative="1" as="geometry">
            <mxPoint x="698" y="580" as="sourcePoint" />
            <mxPoint x="678" y="540" as="targetPoint" />
          </mxGeometry>
        </mxCell>
        <mxCell id="Rq11PXfO91AjFJ7hU85B-83" value="" style="endArrow=none;html=1;rounded=0;strokeColor=#160160;strokeWidth=3;" edge="1" parent="1">
          <mxGeometry width="50" height="50" relative="1" as="geometry">
            <mxPoint x="698" y="580" as="sourcePoint" />
            <mxPoint x="738" y="580" as="targetPoint" />
          </mxGeometry>
        </mxCell>
        <mxCell id="Rq11PXfO91AjFJ7hU85B-84" value="" style="endArrow=none;html=1;rounded=0;strokeColor=#160160;strokeWidth=3;" edge="1" parent="1">
          <mxGeometry width="50" height="50" relative="1" as="geometry">
            <mxPoint x="738" y="580" as="sourcePoint" />
            <mxPoint x="758" y="540" as="targetPoint" />
          </mxGeometry>
        </mxCell>
        <mxCell id="Rq11PXfO91AjFJ7hU85B-85" value="" style="endArrow=none;html=1;rounded=0;strokeColor=#160160;strokeWidth=3;" edge="1" parent="1">
          <mxGeometry width="50" height="50" relative="1" as="geometry">
            <mxPoint x="758" y="540" as="sourcePoint" />
            <mxPoint x="798" y="540" as="targetPoint" />
          </mxGeometry>
        </mxCell>
        <mxCell id="Rq11PXfO91AjFJ7hU85B-86" value="" style="endArrow=none;html=1;rounded=0;strokeColor=#160160;strokeWidth=3;" edge="1" parent="1">
          <mxGeometry width="50" height="50" relative="1" as="geometry">
            <mxPoint x="818" y="580" as="sourcePoint" />
            <mxPoint x="798" y="540" as="targetPoint" />
          </mxGeometry>
        </mxCell>
        <mxCell id="Rq11PXfO91AjFJ7hU85B-87" value="" style="endArrow=none;html=1;rounded=0;strokeColor=#160160;strokeWidth=3;" edge="1" parent="1">
          <mxGeometry width="50" height="50" relative="1" as="geometry">
            <mxPoint x="818" y="580" as="sourcePoint" />
            <mxPoint x="858" y="580" as="targetPoint" />
          </mxGeometry>
        </mxCell>
        <mxCell id="Rq11PXfO91AjFJ7hU85B-88" value="" style="endArrow=none;html=1;rounded=0;strokeColor=#160160;strokeWidth=3;" edge="1" parent="1">
          <mxGeometry width="50" height="50" relative="1" as="geometry">
            <mxPoint x="858" y="580" as="sourcePoint" />
            <mxPoint x="878" y="540" as="targetPoint" />
          </mxGeometry>
        </mxCell>
        <mxCell id="Rq11PXfO91AjFJ7hU85B-89" value="" style="endArrow=none;html=1;rounded=0;strokeColor=#160160;strokeWidth=3;" edge="1" parent="1">
          <mxGeometry width="50" height="50" relative="1" as="geometry">
            <mxPoint x="878" y="540" as="sourcePoint" />
            <mxPoint x="918" y="540" as="targetPoint" />
          </mxGeometry>
        </mxCell>
        <mxCell id="Rq11PXfO91AjFJ7hU85B-90" value="" style="endArrow=none;html=1;rounded=0;strokeColor=#160160;strokeWidth=3;" edge="1" parent="1">
          <mxGeometry width="50" height="50" relative="1" as="geometry">
            <mxPoint x="559" y="580" as="sourcePoint" />
            <mxPoint x="579" y="540" as="targetPoint" />
          </mxGeometry>
        </mxCell>
        <mxCell id="Rq11PXfO91AjFJ7hU85B-91" value="" style="endArrow=none;html=1;rounded=0;strokeColor=#160160;strokeWidth=3;" edge="1" parent="1">
          <mxGeometry width="50" height="50" relative="1" as="geometry">
            <mxPoint x="579" y="540" as="sourcePoint" />
            <mxPoint x="619" y="540" as="targetPoint" />
          </mxGeometry>
        </mxCell>
        <mxCell id="Rq11PXfO91AjFJ7hU85B-92" value="" style="endArrow=none;html=1;rounded=0;strokeColor=#160160;strokeWidth=3;" edge="1" parent="1">
          <mxGeometry width="50" height="50" relative="1" as="geometry">
            <mxPoint x="639" y="580" as="sourcePoint" />
            <mxPoint x="619" y="540" as="targetPoint" />
          </mxGeometry>
        </mxCell>
        <mxCell id="Rq11PXfO91AjFJ7hU85B-93" value="" style="endArrow=none;html=1;rounded=0;strokeColor=#160160;strokeWidth=3;" edge="1" parent="1">
          <mxGeometry width="50" height="50" relative="1" as="geometry">
            <mxPoint x="639" y="580" as="sourcePoint" />
            <mxPoint x="679" y="580" as="targetPoint" />
          </mxGeometry>
        </mxCell>
        <mxCell id="Rq11PXfO91AjFJ7hU85B-94" value="" style="endArrow=none;html=1;rounded=0;strokeColor=#160160;strokeWidth=3;" edge="1" parent="1">
          <mxGeometry width="50" height="50" relative="1" as="geometry">
            <mxPoint x="679" y="580" as="sourcePoint" />
            <mxPoint x="699" y="540" as="targetPoint" />
          </mxGeometry>
        </mxCell>
        <mxCell id="Rq11PXfO91AjFJ7hU85B-95" value="" style="endArrow=none;html=1;rounded=0;strokeColor=#160160;strokeWidth=3;" edge="1" parent="1">
          <mxGeometry width="50" height="50" relative="1" as="geometry">
            <mxPoint x="699" y="540" as="sourcePoint" />
            <mxPoint x="739" y="540" as="targetPoint" />
          </mxGeometry>
        </mxCell>
        <mxCell id="Rq11PXfO91AjFJ7hU85B-96" value="" style="endArrow=none;html=1;rounded=0;strokeColor=#160160;strokeWidth=3;" edge="1" parent="1">
          <mxGeometry width="50" height="50" relative="1" as="geometry">
            <mxPoint x="759" y="580" as="sourcePoint" />
            <mxPoint x="739" y="540" as="targetPoint" />
          </mxGeometry>
        </mxCell>
        <mxCell id="Rq11PXfO91AjFJ7hU85B-97" value="" style="endArrow=none;html=1;rounded=0;strokeColor=#160160;strokeWidth=3;" edge="1" parent="1">
          <mxGeometry width="50" height="50" relative="1" as="geometry">
            <mxPoint x="759" y="580" as="sourcePoint" />
            <mxPoint x="799" y="580" as="targetPoint" />
          </mxGeometry>
        </mxCell>
        <mxCell id="Rq11PXfO91AjFJ7hU85B-98" value="" style="endArrow=none;html=1;rounded=0;strokeColor=#160160;strokeWidth=3;" edge="1" parent="1">
          <mxGeometry width="50" height="50" relative="1" as="geometry">
            <mxPoint x="799" y="580" as="sourcePoint" />
            <mxPoint x="819" y="540" as="targetPoint" />
          </mxGeometry>
        </mxCell>
        <mxCell id="Rq11PXfO91AjFJ7hU85B-99" value="" style="endArrow=none;html=1;rounded=0;strokeColor=#160160;strokeWidth=3;" edge="1" parent="1">
          <mxGeometry width="50" height="50" relative="1" as="geometry">
            <mxPoint x="819" y="540" as="sourcePoint" />
            <mxPoint x="859" y="540" as="targetPoint" />
          </mxGeometry>
        </mxCell>
        <mxCell id="Rq11PXfO91AjFJ7hU85B-100" value="" style="endArrow=none;html=1;rounded=0;strokeColor=#160160;strokeWidth=3;" edge="1" parent="1">
          <mxGeometry width="50" height="50" relative="1" as="geometry">
            <mxPoint x="879" y="580" as="sourcePoint" />
            <mxPoint x="859" y="540" as="targetPoint" />
          </mxGeometry>
        </mxCell>
        <mxCell id="Rq11PXfO91AjFJ7hU85B-101" value="" style="endArrow=none;html=1;rounded=0;strokeColor=#160160;strokeWidth=3;" edge="1" parent="1">
          <mxGeometry width="50" height="50" relative="1" as="geometry">
            <mxPoint x="879" y="580" as="sourcePoint" />
            <mxPoint x="919" y="580" as="targetPoint" />
          </mxGeometry>
        </mxCell>
        <mxCell id="Rq11PXfO91AjFJ7hU85B-102" value="" style="endArrow=none;html=1;rounded=0;strokeColor=#0a0a0a;strokeWidth=3;" edge="1" parent="1">
          <mxGeometry width="50" height="50" relative="1" as="geometry">
            <mxPoint x="730" y="480" as="sourcePoint" />
            <mxPoint x="770" y="480" as="targetPoint" />
          </mxGeometry>
        </mxCell>
        <mxCell id="Rq11PXfO91AjFJ7hU85B-103" value="" style="endArrow=none;html=1;rounded=0;strokeColor=#0a0a0a;strokeWidth=3;" edge="1" parent="1">
          <mxGeometry width="50" height="50" relative="1" as="geometry">
            <mxPoint x="790" y="520" as="sourcePoint" />
            <mxPoint x="770" y="480" as="targetPoint" />
          </mxGeometry>
        </mxCell>
        <mxCell id="Rq11PXfO91AjFJ7hU85B-104" value="" style="endArrow=none;html=1;rounded=0;strokeColor=#0a0a0a;strokeWidth=3;" edge="1" parent="1">
          <mxGeometry width="50" height="50" relative="1" as="geometry">
            <mxPoint x="790" y="520" as="sourcePoint" />
            <mxPoint x="830" y="520" as="targetPoint" />
          </mxGeometry>
        </mxCell>
        <mxCell id="Rq11PXfO91AjFJ7hU85B-105" value="" style="endArrow=classic;html=1;rounded=0;strokeColor=#0a0a0a;strokeWidth=3;endFill=1;" edge="1" parent="1">
          <mxGeometry width="50" height="50" relative="1" as="geometry">
            <mxPoint x="830" y="520" as="sourcePoint" />
            <mxPoint x="850" y="480" as="targetPoint" />
          </mxGeometry>
        </mxCell>
        <mxCell id="Rq11PXfO91AjFJ7hU85B-106" value="" style="endArrow=none;html=1;rounded=0;strokeColor=#0a0a0a;strokeWidth=3;" edge="1" parent="1">
          <mxGeometry width="50" height="50" relative="1" as="geometry">
            <mxPoint x="850" y="480" as="sourcePoint" />
            <mxPoint x="890" y="480" as="targetPoint" />
          </mxGeometry>
        </mxCell>
        <mxCell id="Rq11PXfO91AjFJ7hU85B-107" value="" style="endArrow=none;html=1;rounded=0;strokeColor=#0a0a0a;strokeWidth=3;" edge="1" parent="1">
          <mxGeometry width="50" height="50" relative="1" as="geometry">
            <mxPoint x="910" y="520" as="sourcePoint" />
            <mxPoint x="890" y="480" as="targetPoint" />
          </mxGeometry>
        </mxCell>
        <mxCell id="Rq11PXfO91AjFJ7hU85B-108" value="" style="endArrow=none;html=1;rounded=0;strokeColor=#0a0a0a;strokeWidth=3;" edge="1" parent="1">
          <mxGeometry width="50" height="50" relative="1" as="geometry">
            <mxPoint x="910" y="520" as="sourcePoint" />
            <mxPoint x="950" y="520" as="targetPoint" />
          </mxGeometry>
        </mxCell>
        <mxCell id="Rq11PXfO91AjFJ7hU85B-109" value="" style="endArrow=classic;html=1;rounded=0;strokeColor=#0a0a0a;strokeWidth=3;endFill=1;" edge="1" parent="1">
          <mxGeometry width="50" height="50" relative="1" as="geometry">
            <mxPoint x="950" y="520" as="sourcePoint" />
            <mxPoint x="970" y="480" as="targetPoint" />
          </mxGeometry>
        </mxCell>
        <mxCell id="Rq11PXfO91AjFJ7hU85B-110" value="" style="endArrow=none;html=1;rounded=0;strokeColor=#0a0a0a;strokeWidth=3;" edge="1" parent="1">
          <mxGeometry width="50" height="50" relative="1" as="geometry">
            <mxPoint x="970" y="480" as="sourcePoint" />
            <mxPoint x="1010" y="480" as="targetPoint" />
          </mxGeometry>
        </mxCell>
        <mxCell id="Rq11PXfO91AjFJ7hU85B-111" value="" style="endArrow=none;html=1;rounded=0;strokeColor=#0a0a0a;strokeWidth=3;" edge="1" parent="1">
          <mxGeometry width="50" height="50" relative="1" as="geometry">
            <mxPoint x="1030" y="520" as="sourcePoint" />
            <mxPoint x="1010" y="480" as="targetPoint" />
          </mxGeometry>
        </mxCell>
        <mxCell id="Rq11PXfO91AjFJ7hU85B-112" value="" style="endArrow=none;html=1;rounded=0;strokeColor=#0a0a0a;strokeWidth=3;" edge="1" parent="1">
          <mxGeometry width="50" height="50" relative="1" as="geometry">
            <mxPoint x="1030" y="520" as="sourcePoint" />
            <mxPoint x="1070" y="520" as="targetPoint" />
          </mxGeometry>
        </mxCell>
        <mxCell id="Rq11PXfO91AjFJ7hU85B-118" value="" style="endArrow=none;html=1;rounded=0;strokeColor=#0a0a0a;strokeWidth=3;dashed=1;" edge="1" parent="1">
          <mxGeometry width="50" height="50" relative="1" as="geometry">
            <mxPoint x="731" y="520" as="sourcePoint" />
            <mxPoint x="771" y="520" as="targetPoint" />
          </mxGeometry>
        </mxCell>
        <mxCell id="Rq11PXfO91AjFJ7hU85B-119" value="" style="endArrow=none;html=1;rounded=0;strokeColor=#0a0a0a;strokeWidth=3;dashed=1;" edge="1" parent="1">
          <mxGeometry width="50" height="50" relative="1" as="geometry">
            <mxPoint x="771" y="520" as="sourcePoint" />
            <mxPoint x="791" y="480" as="targetPoint" />
          </mxGeometry>
        </mxCell>
        <mxCell id="Rq11PXfO91AjFJ7hU85B-120" value="" style="endArrow=none;html=1;rounded=0;strokeColor=#0a0a0a;strokeWidth=3;dashed=1;" edge="1" parent="1">
          <mxGeometry width="50" height="50" relative="1" as="geometry">
            <mxPoint x="791" y="480" as="sourcePoint" />
            <mxPoint x="831" y="480" as="targetPoint" />
          </mxGeometry>
        </mxCell>
        <mxCell id="Rq11PXfO91AjFJ7hU85B-121" value="" style="endArrow=none;html=1;rounded=0;strokeColor=#0a0a0a;strokeWidth=3;dashed=1;" edge="1" parent="1">
          <mxGeometry width="50" height="50" relative="1" as="geometry">
            <mxPoint x="851" y="520" as="sourcePoint" />
            <mxPoint x="831" y="480" as="targetPoint" />
          </mxGeometry>
        </mxCell>
        <mxCell id="Rq11PXfO91AjFJ7hU85B-122" value="" style="endArrow=none;html=1;rounded=0;strokeColor=#0a0a0a;strokeWidth=3;dashed=1;" edge="1" parent="1">
          <mxGeometry width="50" height="50" relative="1" as="geometry">
            <mxPoint x="851" y="520" as="sourcePoint" />
            <mxPoint x="891" y="520" as="targetPoint" />
          </mxGeometry>
        </mxCell>
        <mxCell id="Rq11PXfO91AjFJ7hU85B-123" value="" style="endArrow=none;html=1;rounded=0;strokeColor=#0a0a0a;strokeWidth=3;dashed=1;" edge="1" parent="1">
          <mxGeometry width="50" height="50" relative="1" as="geometry">
            <mxPoint x="891" y="520" as="sourcePoint" />
            <mxPoint x="911" y="480" as="targetPoint" />
          </mxGeometry>
        </mxCell>
        <mxCell id="Rq11PXfO91AjFJ7hU85B-124" value="" style="endArrow=none;html=1;rounded=0;strokeColor=#0a0a0a;strokeWidth=3;dashed=1;" edge="1" parent="1">
          <mxGeometry width="50" height="50" relative="1" as="geometry">
            <mxPoint x="911" y="480" as="sourcePoint" />
            <mxPoint x="951" y="480" as="targetPoint" />
          </mxGeometry>
        </mxCell>
        <mxCell id="Rq11PXfO91AjFJ7hU85B-125" value="" style="endArrow=none;html=1;rounded=0;strokeColor=#0a0a0a;strokeWidth=3;dashed=1;" edge="1" parent="1">
          <mxGeometry width="50" height="50" relative="1" as="geometry">
            <mxPoint x="971" y="520" as="sourcePoint" />
            <mxPoint x="951" y="480" as="targetPoint" />
          </mxGeometry>
        </mxCell>
        <mxCell id="Rq11PXfO91AjFJ7hU85B-126" value="" style="endArrow=none;html=1;rounded=0;strokeColor=#0a0a0a;strokeWidth=3;dashed=1;" edge="1" parent="1">
          <mxGeometry width="50" height="50" relative="1" as="geometry">
            <mxPoint x="971" y="520" as="sourcePoint" />
            <mxPoint x="1011" y="520" as="targetPoint" />
          </mxGeometry>
        </mxCell>
        <mxCell id="Rq11PXfO91AjFJ7hU85B-127" value="" style="endArrow=none;html=1;rounded=0;strokeColor=#0a0a0a;strokeWidth=3;dashed=1;" edge="1" parent="1">
          <mxGeometry width="50" height="50" relative="1" as="geometry">
            <mxPoint x="1011" y="520" as="sourcePoint" />
            <mxPoint x="1031" y="480" as="targetPoint" />
          </mxGeometry>
        </mxCell>
        <mxCell id="Rq11PXfO91AjFJ7hU85B-128" value="" style="endArrow=none;html=1;rounded=0;strokeColor=#0a0a0a;strokeWidth=3;dashed=1;" edge="1" parent="1">
          <mxGeometry width="50" height="50" relative="1" as="geometry">
            <mxPoint x="1031" y="480" as="sourcePoint" />
            <mxPoint x="1071" y="480" as="targetPoint" />
          </mxGeometry>
        </mxCell>
        <mxCell id="Rq11PXfO91AjFJ7hU85B-134" value="DQS_c" style="text;html=1;align=center;verticalAlign=middle;whiteSpace=wrap;rounded=0;fontStyle=1" vertex="1" parent="1">
          <mxGeometry x="130" y="470" width="60" height="20" as="geometry" />
        </mxCell>
        <mxCell id="Rq11PXfO91AjFJ7hU85B-135" value="DQS_t" style="text;html=1;align=center;verticalAlign=middle;whiteSpace=wrap;rounded=0;fontStyle=1" vertex="1" parent="1">
          <mxGeometry x="130" y="510" width="60" height="20" as="geometry" />
        </mxCell>
        <mxCell id="Rq11PXfO91AjFJ7hU85B-136" value="DQ" style="text;html=1;align=center;verticalAlign=middle;whiteSpace=wrap;rounded=0;fontColor=#160160;fontStyle=1" vertex="1" parent="1">
          <mxGeometry x="130" y="550" width="60" height="20" as="geometry" />
        </mxCell>
        <mxCell id="Rq11PXfO91AjFJ7hU85B-137" value="" style="endArrow=none;dashed=1;html=1;rounded=0;" edge="1" parent="1" source="Rq11PXfO91AjFJ7hU85B-320">
          <mxGeometry width="50" height="50" relative="1" as="geometry">
            <mxPoint x="240" y="1080" as="sourcePoint" />
            <mxPoint x="240" y="440" as="targetPoint" />
          </mxGeometry>
        </mxCell>
        <mxCell id="Rq11PXfO91AjFJ7hU85B-138" value="" style="endArrow=none;dashed=1;html=1;rounded=0;" edge="1" parent="1" source="Rq11PXfO91AjFJ7hU85B-322">
          <mxGeometry width="50" height="50" relative="1" as="geometry">
            <mxPoint x="300" y="1080" as="sourcePoint" />
            <mxPoint x="300" y="440" as="targetPoint" />
          </mxGeometry>
        </mxCell>
        <mxCell id="Rq11PXfO91AjFJ7hU85B-139" value="" style="endArrow=none;dashed=1;html=1;rounded=0;" edge="1" parent="1" source="Rq11PXfO91AjFJ7hU85B-338">
          <mxGeometry width="50" height="50" relative="1" as="geometry">
            <mxPoint x="360" y="1080" as="sourcePoint" />
            <mxPoint x="360" y="440" as="targetPoint" />
          </mxGeometry>
        </mxCell>
        <mxCell id="Rq11PXfO91AjFJ7hU85B-140" value="" style="endArrow=none;dashed=1;html=1;rounded=0;" edge="1" parent="1" source="Rq11PXfO91AjFJ7hU85B-340">
          <mxGeometry width="50" height="50" relative="1" as="geometry">
            <mxPoint x="420" y="1080" as="sourcePoint" />
            <mxPoint x="420" y="440" as="targetPoint" />
          </mxGeometry>
        </mxCell>
        <mxCell id="Rq11PXfO91AjFJ7hU85B-141" value="" style="endArrow=none;dashed=1;html=1;rounded=0;" edge="1" parent="1">
          <mxGeometry width="50" height="50" relative="1" as="geometry">
            <mxPoint x="480" y="1080" as="sourcePoint" />
            <mxPoint x="480" y="430" as="targetPoint" />
          </mxGeometry>
        </mxCell>
        <mxCell id="Rq11PXfO91AjFJ7hU85B-142" value="" style="endArrow=none;dashed=1;html=1;rounded=0;" edge="1" parent="1">
          <mxGeometry width="50" height="50" relative="1" as="geometry">
            <mxPoint x="540" y="1080" as="sourcePoint" />
            <mxPoint x="540" y="430" as="targetPoint" />
          </mxGeometry>
        </mxCell>
        <mxCell id="Rq11PXfO91AjFJ7hU85B-143" value="" style="endArrow=none;dashed=1;html=1;rounded=0;" edge="1" parent="1">
          <mxGeometry width="50" height="50" relative="1" as="geometry">
            <mxPoint x="600" y="1070" as="sourcePoint" />
            <mxPoint x="600" y="430" as="targetPoint" />
          </mxGeometry>
        </mxCell>
        <mxCell id="Rq11PXfO91AjFJ7hU85B-144" value="" style="endArrow=none;dashed=1;html=1;rounded=0;" edge="1" parent="1" source="Rq11PXfO91AjFJ7hU85B-345">
          <mxGeometry width="50" height="50" relative="1" as="geometry">
            <mxPoint x="660" y="1080" as="sourcePoint" />
            <mxPoint x="660" y="430" as="targetPoint" />
          </mxGeometry>
        </mxCell>
        <mxCell id="Rq11PXfO91AjFJ7hU85B-145" value="" style="endArrow=none;dashed=1;html=1;rounded=0;" edge="1" parent="1" source="Rq11PXfO91AjFJ7hU85B-346">
          <mxGeometry width="50" height="50" relative="1" as="geometry">
            <mxPoint x="720" y="1080" as="sourcePoint" />
            <mxPoint x="720" y="430" as="targetPoint" />
          </mxGeometry>
        </mxCell>
        <mxCell id="Rq11PXfO91AjFJ7hU85B-146" value="" style="endArrow=none;dashed=1;html=1;rounded=0;" edge="1" parent="1" source="Rq11PXfO91AjFJ7hU85B-347">
          <mxGeometry width="50" height="50" relative="1" as="geometry">
            <mxPoint x="780" y="1080" as="sourcePoint" />
            <mxPoint x="780" y="430" as="targetPoint" />
          </mxGeometry>
        </mxCell>
        <mxCell id="Rq11PXfO91AjFJ7hU85B-147" value="" style="endArrow=none;dashed=1;html=1;rounded=0;" edge="1" parent="1">
          <mxGeometry width="50" height="50" relative="1" as="geometry">
            <mxPoint x="840" y="1080" as="sourcePoint" />
            <mxPoint x="840" y="430" as="targetPoint" />
          </mxGeometry>
        </mxCell>
        <mxCell id="Rq11PXfO91AjFJ7hU85B-148" value="" style="endArrow=none;dashed=1;html=1;rounded=0;" edge="1" parent="1">
          <mxGeometry width="50" height="50" relative="1" as="geometry">
            <mxPoint x="900" y="1080" as="sourcePoint" />
            <mxPoint x="900" y="430" as="targetPoint" />
          </mxGeometry>
        </mxCell>
        <mxCell id="Rq11PXfO91AjFJ7hU85B-149" value="" style="endArrow=none;html=1;rounded=0;strokeColor=#160160;strokeWidth=3;" edge="1" parent="1">
          <mxGeometry width="50" height="50" relative="1" as="geometry">
            <mxPoint x="917" y="579.71" as="sourcePoint" />
            <mxPoint x="937" y="539.71" as="targetPoint" />
          </mxGeometry>
        </mxCell>
        <mxCell id="Rq11PXfO91AjFJ7hU85B-150" value="" style="endArrow=none;html=1;rounded=0;strokeColor=#160160;strokeWidth=3;" edge="1" parent="1">
          <mxGeometry width="50" height="50" relative="1" as="geometry">
            <mxPoint x="937" y="539.71" as="sourcePoint" />
            <mxPoint x="977" y="539.71" as="targetPoint" />
          </mxGeometry>
        </mxCell>
        <mxCell id="Rq11PXfO91AjFJ7hU85B-151" value="" style="endArrow=none;html=1;rounded=0;strokeColor=#160160;strokeWidth=3;" edge="1" parent="1">
          <mxGeometry width="50" height="50" relative="1" as="geometry">
            <mxPoint x="997" y="579.71" as="sourcePoint" />
            <mxPoint x="977" y="539.71" as="targetPoint" />
          </mxGeometry>
        </mxCell>
        <mxCell id="Rq11PXfO91AjFJ7hU85B-152" value="" style="endArrow=none;html=1;rounded=0;strokeColor=#160160;strokeWidth=3;" edge="1" parent="1">
          <mxGeometry width="50" height="50" relative="1" as="geometry">
            <mxPoint x="997" y="579.71" as="sourcePoint" />
            <mxPoint x="1037" y="579.71" as="targetPoint" />
          </mxGeometry>
        </mxCell>
        <mxCell id="Rq11PXfO91AjFJ7hU85B-153" value="" style="endArrow=none;html=1;rounded=0;strokeColor=#160160;strokeWidth=3;" edge="1" parent="1">
          <mxGeometry width="50" height="50" relative="1" as="geometry">
            <mxPoint x="1037" y="579.71" as="sourcePoint" />
            <mxPoint x="1057" y="539.71" as="targetPoint" />
          </mxGeometry>
        </mxCell>
        <mxCell id="Rq11PXfO91AjFJ7hU85B-155" value="" style="endArrow=none;html=1;rounded=0;strokeColor=#160160;strokeWidth=3;" edge="1" parent="1">
          <mxGeometry width="50" height="50" relative="1" as="geometry">
            <mxPoint x="938" y="579.71" as="sourcePoint" />
            <mxPoint x="918" y="539.71" as="targetPoint" />
          </mxGeometry>
        </mxCell>
        <mxCell id="Rq11PXfO91AjFJ7hU85B-156" value="" style="endArrow=none;html=1;rounded=0;strokeColor=#160160;strokeWidth=3;" edge="1" parent="1">
          <mxGeometry width="50" height="50" relative="1" as="geometry">
            <mxPoint x="938" y="579.71" as="sourcePoint" />
            <mxPoint x="978" y="579.71" as="targetPoint" />
          </mxGeometry>
        </mxCell>
        <mxCell id="Rq11PXfO91AjFJ7hU85B-157" value="" style="endArrow=none;html=1;rounded=0;strokeColor=#160160;strokeWidth=3;" edge="1" parent="1">
          <mxGeometry width="50" height="50" relative="1" as="geometry">
            <mxPoint x="978" y="579.71" as="sourcePoint" />
            <mxPoint x="998" y="539.71" as="targetPoint" />
          </mxGeometry>
        </mxCell>
        <mxCell id="Rq11PXfO91AjFJ7hU85B-158" value="" style="endArrow=none;html=1;rounded=0;strokeColor=#160160;strokeWidth=3;" edge="1" parent="1">
          <mxGeometry width="50" height="50" relative="1" as="geometry">
            <mxPoint x="998" y="539.71" as="sourcePoint" />
            <mxPoint x="1038" y="539.71" as="targetPoint" />
          </mxGeometry>
        </mxCell>
        <mxCell id="Rq11PXfO91AjFJ7hU85B-159" value="" style="endArrow=none;html=1;rounded=0;strokeColor=#160160;strokeWidth=3;" edge="1" parent="1">
          <mxGeometry width="50" height="50" relative="1" as="geometry">
            <mxPoint x="1058" y="579.71" as="sourcePoint" />
            <mxPoint x="1038" y="539.71" as="targetPoint" />
          </mxGeometry>
        </mxCell>
        <mxCell id="Rq11PXfO91AjFJ7hU85B-161" value="" style="endArrow=none;html=1;rounded=0;strokeColor=#f5a905;strokeWidth=3;" edge="1" parent="1">
          <mxGeometry width="50" height="50" relative="1" as="geometry">
            <mxPoint x="230" y="640" as="sourcePoint" />
            <mxPoint x="250" y="600" as="targetPoint" />
          </mxGeometry>
        </mxCell>
        <mxCell id="Rq11PXfO91AjFJ7hU85B-162" value="" style="endArrow=none;html=1;rounded=0;strokeColor=#f5a905;strokeWidth=3;" edge="1" parent="1">
          <mxGeometry width="50" height="50" relative="1" as="geometry">
            <mxPoint x="250" y="600" as="sourcePoint" />
            <mxPoint x="350" y="600" as="targetPoint" />
          </mxGeometry>
        </mxCell>
        <mxCell id="Rq11PXfO91AjFJ7hU85B-163" value="" style="endArrow=none;html=1;rounded=0;strokeColor=#f5a905;strokeWidth=3;" edge="1" parent="1">
          <mxGeometry width="50" height="50" relative="1" as="geometry">
            <mxPoint x="370" y="640" as="sourcePoint" />
            <mxPoint x="350" y="600" as="targetPoint" />
          </mxGeometry>
        </mxCell>
        <mxCell id="Rq11PXfO91AjFJ7hU85B-164" value="" style="endArrow=none;html=1;rounded=0;strokeColor=#f5a905;strokeWidth=3;" edge="1" parent="1">
          <mxGeometry width="50" height="50" relative="1" as="geometry">
            <mxPoint x="370" y="640" as="sourcePoint" />
            <mxPoint x="470" y="640" as="targetPoint" />
          </mxGeometry>
        </mxCell>
        <mxCell id="Rq11PXfO91AjFJ7hU85B-165" value="" style="endArrow=none;html=1;rounded=0;strokeColor=#f5a905;strokeWidth=3;" edge="1" parent="1">
          <mxGeometry width="50" height="50" relative="1" as="geometry">
            <mxPoint x="470" y="640" as="sourcePoint" />
            <mxPoint x="490" y="600" as="targetPoint" />
          </mxGeometry>
        </mxCell>
        <mxCell id="Rq11PXfO91AjFJ7hU85B-166" value="" style="endArrow=none;html=1;rounded=0;strokeColor=#f5a905;strokeWidth=3;" edge="1" parent="1">
          <mxGeometry width="50" height="50" relative="1" as="geometry">
            <mxPoint x="490" y="600" as="sourcePoint" />
            <mxPoint x="590" y="600" as="targetPoint" />
          </mxGeometry>
        </mxCell>
        <mxCell id="Rq11PXfO91AjFJ7hU85B-167" value="" style="endArrow=none;html=1;rounded=0;strokeColor=#f5a905;strokeWidth=3;" edge="1" parent="1">
          <mxGeometry width="50" height="50" relative="1" as="geometry">
            <mxPoint x="610" y="640" as="sourcePoint" />
            <mxPoint x="590" y="600" as="targetPoint" />
          </mxGeometry>
        </mxCell>
        <mxCell id="Rq11PXfO91AjFJ7hU85B-168" value="" style="endArrow=none;html=1;rounded=0;strokeColor=#f5a905;strokeWidth=3;" edge="1" parent="1">
          <mxGeometry width="50" height="50" relative="1" as="geometry">
            <mxPoint x="610" y="640" as="sourcePoint" />
            <mxPoint x="710" y="640" as="targetPoint" />
          </mxGeometry>
        </mxCell>
        <mxCell id="Rq11PXfO91AjFJ7hU85B-169" value="" style="endArrow=none;html=1;rounded=0;strokeColor=#f5a905;strokeWidth=3;" edge="1" parent="1">
          <mxGeometry width="50" height="50" relative="1" as="geometry">
            <mxPoint x="710" y="640" as="sourcePoint" />
            <mxPoint x="730" y="600" as="targetPoint" />
          </mxGeometry>
        </mxCell>
        <mxCell id="Rq11PXfO91AjFJ7hU85B-170" value="" style="endArrow=none;html=1;rounded=0;strokeColor=#f5a905;strokeWidth=3;" edge="1" parent="1">
          <mxGeometry width="50" height="50" relative="1" as="geometry">
            <mxPoint x="730" y="600" as="sourcePoint" />
            <mxPoint x="830" y="600" as="targetPoint" />
          </mxGeometry>
        </mxCell>
        <mxCell id="Rq11PXfO91AjFJ7hU85B-171" value="" style="endArrow=none;html=1;rounded=0;strokeColor=#f5a905;strokeWidth=3;" edge="1" parent="1">
          <mxGeometry width="50" height="50" relative="1" as="geometry">
            <mxPoint x="850" y="640" as="sourcePoint" />
            <mxPoint x="830" y="600" as="targetPoint" />
          </mxGeometry>
        </mxCell>
        <mxCell id="Rq11PXfO91AjFJ7hU85B-172" value="" style="endArrow=none;html=1;rounded=0;strokeColor=#f5a905;strokeWidth=3;" edge="1" parent="1">
          <mxGeometry width="50" height="50" relative="1" as="geometry">
            <mxPoint x="850" y="640" as="sourcePoint" />
            <mxPoint x="950" y="640" as="targetPoint" />
          </mxGeometry>
        </mxCell>
        <mxCell id="Rq11PXfO91AjFJ7hU85B-173" value="" style="endArrow=none;html=1;rounded=0;strokeColor=#f5a905;strokeWidth=3;" edge="1" parent="1">
          <mxGeometry width="50" height="50" relative="1" as="geometry">
            <mxPoint x="200" y="640" as="sourcePoint" />
            <mxPoint x="230" y="640" as="targetPoint" />
          </mxGeometry>
        </mxCell>
        <mxCell id="Rq11PXfO91AjFJ7hU85B-175" value="" style="endArrow=none;html=1;rounded=0;strokeColor=#f5a905;strokeWidth=3;" edge="1" parent="1">
          <mxGeometry width="50" height="50" relative="1" as="geometry">
            <mxPoint x="950" y="640" as="sourcePoint" />
            <mxPoint x="970" y="600" as="targetPoint" />
          </mxGeometry>
        </mxCell>
        <mxCell id="Rq11PXfO91AjFJ7hU85B-176" value="" style="endArrow=none;html=1;rounded=0;strokeColor=#f5a905;strokeWidth=3;" edge="1" parent="1">
          <mxGeometry width="50" height="50" relative="1" as="geometry">
            <mxPoint x="970" y="600" as="sourcePoint" />
            <mxPoint x="1080" y="600" as="targetPoint" />
          </mxGeometry>
        </mxCell>
        <mxCell id="Rq11PXfO91AjFJ7hU85B-179" value="" style="endArrow=none;dashed=1;html=1;rounded=0;" edge="1" parent="1">
          <mxGeometry width="50" height="50" relative="1" as="geometry">
            <mxPoint x="960" y="1060" as="sourcePoint" />
            <mxPoint x="960" y="420" as="targetPoint" />
          </mxGeometry>
        </mxCell>
        <mxCell id="Rq11PXfO91AjFJ7hU85B-180" value="" style="endArrow=none;dashed=1;html=1;rounded=0;" edge="1" parent="1">
          <mxGeometry width="50" height="50" relative="1" as="geometry">
            <mxPoint x="1020" y="1060" as="sourcePoint" />
            <mxPoint x="1020" y="420" as="targetPoint" />
          </mxGeometry>
        </mxCell>
        <mxCell id="Rq11PXfO91AjFJ7hU85B-183" value="" style="endArrow=none;html=1;rounded=0;strokeColor=#419806;strokeWidth=3;" edge="1" parent="1">
          <mxGeometry width="50" height="50" relative="1" as="geometry">
            <mxPoint x="290" y="700" as="sourcePoint" />
            <mxPoint x="310" y="660" as="targetPoint" />
          </mxGeometry>
        </mxCell>
        <mxCell id="Rq11PXfO91AjFJ7hU85B-184" value="" style="endArrow=none;html=1;rounded=0;strokeColor=#419806;strokeWidth=3;" edge="1" parent="1">
          <mxGeometry width="50" height="50" relative="1" as="geometry">
            <mxPoint x="310" y="660" as="sourcePoint" />
            <mxPoint x="410" y="660" as="targetPoint" />
          </mxGeometry>
        </mxCell>
        <mxCell id="Rq11PXfO91AjFJ7hU85B-185" value="" style="endArrow=none;html=1;rounded=0;strokeColor=#419806;strokeWidth=3;" edge="1" parent="1">
          <mxGeometry width="50" height="50" relative="1" as="geometry">
            <mxPoint x="430" y="700" as="sourcePoint" />
            <mxPoint x="410" y="660" as="targetPoint" />
          </mxGeometry>
        </mxCell>
        <mxCell id="Rq11PXfO91AjFJ7hU85B-186" value="" style="endArrow=none;html=1;rounded=0;strokeColor=#419806;strokeWidth=3;" edge="1" parent="1">
          <mxGeometry width="50" height="50" relative="1" as="geometry">
            <mxPoint x="430" y="700" as="sourcePoint" />
            <mxPoint x="530" y="700" as="targetPoint" />
          </mxGeometry>
        </mxCell>
        <mxCell id="Rq11PXfO91AjFJ7hU85B-187" value="" style="endArrow=none;html=1;rounded=0;strokeColor=#419806;strokeWidth=3;" edge="1" parent="1">
          <mxGeometry width="50" height="50" relative="1" as="geometry">
            <mxPoint x="530" y="700" as="sourcePoint" />
            <mxPoint x="550" y="660" as="targetPoint" />
          </mxGeometry>
        </mxCell>
        <mxCell id="Rq11PXfO91AjFJ7hU85B-188" value="" style="endArrow=none;html=1;rounded=0;strokeColor=#419806;strokeWidth=3;" edge="1" parent="1">
          <mxGeometry width="50" height="50" relative="1" as="geometry">
            <mxPoint x="550" y="660" as="sourcePoint" />
            <mxPoint x="650" y="660" as="targetPoint" />
          </mxGeometry>
        </mxCell>
        <mxCell id="Rq11PXfO91AjFJ7hU85B-189" value="" style="endArrow=none;html=1;rounded=0;strokeColor=#419806;strokeWidth=3;" edge="1" parent="1">
          <mxGeometry width="50" height="50" relative="1" as="geometry">
            <mxPoint x="670" y="700" as="sourcePoint" />
            <mxPoint x="650" y="660" as="targetPoint" />
          </mxGeometry>
        </mxCell>
        <mxCell id="Rq11PXfO91AjFJ7hU85B-190" value="" style="endArrow=none;html=1;rounded=0;strokeColor=#419806;strokeWidth=3;" edge="1" parent="1">
          <mxGeometry width="50" height="50" relative="1" as="geometry">
            <mxPoint x="670" y="700" as="sourcePoint" />
            <mxPoint x="770" y="700" as="targetPoint" />
          </mxGeometry>
        </mxCell>
        <mxCell id="Rq11PXfO91AjFJ7hU85B-191" value="" style="endArrow=none;html=1;rounded=0;strokeColor=#419806;strokeWidth=3;" edge="1" parent="1">
          <mxGeometry width="50" height="50" relative="1" as="geometry">
            <mxPoint x="770" y="700" as="sourcePoint" />
            <mxPoint x="790" y="660" as="targetPoint" />
          </mxGeometry>
        </mxCell>
        <mxCell id="Rq11PXfO91AjFJ7hU85B-192" value="" style="endArrow=none;html=1;rounded=0;strokeColor=#419806;strokeWidth=3;" edge="1" parent="1">
          <mxGeometry width="50" height="50" relative="1" as="geometry">
            <mxPoint x="790" y="660" as="sourcePoint" />
            <mxPoint x="890" y="660" as="targetPoint" />
          </mxGeometry>
        </mxCell>
        <mxCell id="Rq11PXfO91AjFJ7hU85B-193" value="" style="endArrow=none;html=1;rounded=0;strokeColor=#419806;strokeWidth=3;" edge="1" parent="1">
          <mxGeometry width="50" height="50" relative="1" as="geometry">
            <mxPoint x="910" y="700" as="sourcePoint" />
            <mxPoint x="890" y="660" as="targetPoint" />
          </mxGeometry>
        </mxCell>
        <mxCell id="Rq11PXfO91AjFJ7hU85B-194" value="" style="endArrow=none;html=1;rounded=0;strokeColor=#419806;strokeWidth=3;" edge="1" parent="1">
          <mxGeometry width="50" height="50" relative="1" as="geometry">
            <mxPoint x="910" y="700" as="sourcePoint" />
            <mxPoint x="1010" y="700" as="targetPoint" />
          </mxGeometry>
        </mxCell>
        <mxCell id="Rq11PXfO91AjFJ7hU85B-196" value="" style="endArrow=none;html=1;rounded=0;strokeColor=#419806;strokeWidth=3;" edge="1" parent="1">
          <mxGeometry width="50" height="50" relative="1" as="geometry">
            <mxPoint x="1010" y="700" as="sourcePoint" />
            <mxPoint x="1030" y="660" as="targetPoint" />
          </mxGeometry>
        </mxCell>
        <mxCell id="Rq11PXfO91AjFJ7hU85B-197" value="" style="endArrow=none;html=1;rounded=0;strokeColor=#419806;strokeWidth=3;" edge="1" parent="1">
          <mxGeometry width="50" height="50" relative="1" as="geometry">
            <mxPoint x="1030" y="660" as="sourcePoint" />
            <mxPoint x="1080" y="660" as="targetPoint" />
          </mxGeometry>
        </mxCell>
        <mxCell id="Rq11PXfO91AjFJ7hU85B-200" value="" style="endArrow=none;html=1;rounded=0;strokeColor=#068aef;strokeWidth=3;" edge="1" parent="1">
          <mxGeometry width="50" height="50" relative="1" as="geometry">
            <mxPoint x="350" y="760" as="sourcePoint" />
            <mxPoint x="370" y="720" as="targetPoint" />
          </mxGeometry>
        </mxCell>
        <mxCell id="Rq11PXfO91AjFJ7hU85B-201" value="" style="endArrow=none;html=1;rounded=0;strokeColor=#068aef;strokeWidth=3;" edge="1" parent="1">
          <mxGeometry width="50" height="50" relative="1" as="geometry">
            <mxPoint x="370" y="720" as="sourcePoint" />
            <mxPoint x="470" y="720" as="targetPoint" />
          </mxGeometry>
        </mxCell>
        <mxCell id="Rq11PXfO91AjFJ7hU85B-202" value="" style="endArrow=none;html=1;rounded=0;strokeColor=#068aef;strokeWidth=3;" edge="1" parent="1">
          <mxGeometry width="50" height="50" relative="1" as="geometry">
            <mxPoint x="490" y="760" as="sourcePoint" />
            <mxPoint x="470" y="720" as="targetPoint" />
          </mxGeometry>
        </mxCell>
        <mxCell id="Rq11PXfO91AjFJ7hU85B-203" value="" style="endArrow=none;html=1;rounded=0;strokeColor=#068aef;strokeWidth=3;" edge="1" parent="1">
          <mxGeometry width="50" height="50" relative="1" as="geometry">
            <mxPoint x="490" y="760" as="sourcePoint" />
            <mxPoint x="590" y="760" as="targetPoint" />
          </mxGeometry>
        </mxCell>
        <mxCell id="Rq11PXfO91AjFJ7hU85B-204" value="" style="endArrow=none;html=1;rounded=0;strokeColor=#068aef;strokeWidth=3;" edge="1" parent="1">
          <mxGeometry width="50" height="50" relative="1" as="geometry">
            <mxPoint x="590" y="760" as="sourcePoint" />
            <mxPoint x="610" y="720" as="targetPoint" />
          </mxGeometry>
        </mxCell>
        <mxCell id="Rq11PXfO91AjFJ7hU85B-205" value="" style="endArrow=none;html=1;rounded=0;strokeColor=#068aef;strokeWidth=3;" edge="1" parent="1">
          <mxGeometry width="50" height="50" relative="1" as="geometry">
            <mxPoint x="610" y="720" as="sourcePoint" />
            <mxPoint x="710" y="720" as="targetPoint" />
          </mxGeometry>
        </mxCell>
        <mxCell id="Rq11PXfO91AjFJ7hU85B-206" value="" style="endArrow=none;html=1;rounded=0;strokeColor=#068aef;strokeWidth=3;" edge="1" parent="1">
          <mxGeometry width="50" height="50" relative="1" as="geometry">
            <mxPoint x="730" y="760" as="sourcePoint" />
            <mxPoint x="710" y="720" as="targetPoint" />
          </mxGeometry>
        </mxCell>
        <mxCell id="Rq11PXfO91AjFJ7hU85B-207" value="" style="endArrow=none;html=1;rounded=0;strokeColor=#068aef;strokeWidth=3;" edge="1" parent="1">
          <mxGeometry width="50" height="50" relative="1" as="geometry">
            <mxPoint x="730" y="760" as="sourcePoint" />
            <mxPoint x="830" y="760" as="targetPoint" />
          </mxGeometry>
        </mxCell>
        <mxCell id="Rq11PXfO91AjFJ7hU85B-208" value="" style="endArrow=none;html=1;rounded=0;strokeColor=#068aef;strokeWidth=3;" edge="1" parent="1">
          <mxGeometry width="50" height="50" relative="1" as="geometry">
            <mxPoint x="830" y="760" as="sourcePoint" />
            <mxPoint x="850" y="720" as="targetPoint" />
          </mxGeometry>
        </mxCell>
        <mxCell id="Rq11PXfO91AjFJ7hU85B-209" value="" style="endArrow=none;html=1;rounded=0;strokeColor=#068aef;strokeWidth=3;" edge="1" parent="1">
          <mxGeometry width="50" height="50" relative="1" as="geometry">
            <mxPoint x="850" y="720" as="sourcePoint" />
            <mxPoint x="950" y="720" as="targetPoint" />
          </mxGeometry>
        </mxCell>
        <mxCell id="Rq11PXfO91AjFJ7hU85B-210" value="" style="endArrow=none;html=1;rounded=0;strokeColor=#068aef;strokeWidth=3;" edge="1" parent="1">
          <mxGeometry width="50" height="50" relative="1" as="geometry">
            <mxPoint x="970" y="760" as="sourcePoint" />
            <mxPoint x="950" y="720" as="targetPoint" />
          </mxGeometry>
        </mxCell>
        <mxCell id="Rq11PXfO91AjFJ7hU85B-211" value="" style="endArrow=none;html=1;rounded=0;strokeColor=#068aef;strokeWidth=3;" edge="1" parent="1">
          <mxGeometry width="50" height="50" relative="1" as="geometry">
            <mxPoint x="970" y="760" as="sourcePoint" />
            <mxPoint x="1080" y="760" as="targetPoint" />
          </mxGeometry>
        </mxCell>
        <mxCell id="Rq11PXfO91AjFJ7hU85B-217" value="" style="endArrow=none;html=1;rounded=0;strokeColor=#a10808;strokeWidth=3;" edge="1" parent="1">
          <mxGeometry width="50" height="50" relative="1" as="geometry">
            <mxPoint x="410" y="820" as="sourcePoint" />
            <mxPoint x="430" y="780" as="targetPoint" />
          </mxGeometry>
        </mxCell>
        <mxCell id="Rq11PXfO91AjFJ7hU85B-218" value="" style="endArrow=none;html=1;rounded=0;strokeColor=#a10808;strokeWidth=3;" edge="1" parent="1">
          <mxGeometry width="50" height="50" relative="1" as="geometry">
            <mxPoint x="430" y="780" as="sourcePoint" />
            <mxPoint x="530" y="780" as="targetPoint" />
          </mxGeometry>
        </mxCell>
        <mxCell id="Rq11PXfO91AjFJ7hU85B-219" value="" style="endArrow=none;html=1;rounded=0;strokeColor=#a10808;strokeWidth=3;" edge="1" parent="1">
          <mxGeometry width="50" height="50" relative="1" as="geometry">
            <mxPoint x="550" y="820" as="sourcePoint" />
            <mxPoint x="530" y="780" as="targetPoint" />
          </mxGeometry>
        </mxCell>
        <mxCell id="Rq11PXfO91AjFJ7hU85B-220" value="" style="endArrow=none;html=1;rounded=0;strokeColor=#a10808;strokeWidth=3;" edge="1" parent="1">
          <mxGeometry width="50" height="50" relative="1" as="geometry">
            <mxPoint x="550" y="820" as="sourcePoint" />
            <mxPoint x="650" y="820" as="targetPoint" />
          </mxGeometry>
        </mxCell>
        <mxCell id="Rq11PXfO91AjFJ7hU85B-221" value="" style="endArrow=none;html=1;rounded=0;strokeColor=#a10808;strokeWidth=3;" edge="1" parent="1">
          <mxGeometry width="50" height="50" relative="1" as="geometry">
            <mxPoint x="650" y="820" as="sourcePoint" />
            <mxPoint x="670" y="780" as="targetPoint" />
          </mxGeometry>
        </mxCell>
        <mxCell id="Rq11PXfO91AjFJ7hU85B-222" value="" style="endArrow=none;html=1;rounded=0;strokeColor=#a10808;strokeWidth=3;" edge="1" parent="1">
          <mxGeometry width="50" height="50" relative="1" as="geometry">
            <mxPoint x="670" y="780" as="sourcePoint" />
            <mxPoint x="770" y="780" as="targetPoint" />
          </mxGeometry>
        </mxCell>
        <mxCell id="Rq11PXfO91AjFJ7hU85B-223" value="" style="endArrow=none;html=1;rounded=0;strokeColor=#a10808;strokeWidth=3;" edge="1" parent="1">
          <mxGeometry width="50" height="50" relative="1" as="geometry">
            <mxPoint x="790" y="820" as="sourcePoint" />
            <mxPoint x="770" y="780" as="targetPoint" />
          </mxGeometry>
        </mxCell>
        <mxCell id="Rq11PXfO91AjFJ7hU85B-224" value="" style="endArrow=none;html=1;rounded=0;strokeColor=#a10808;strokeWidth=3;" edge="1" parent="1">
          <mxGeometry width="50" height="50" relative="1" as="geometry">
            <mxPoint x="790" y="820" as="sourcePoint" />
            <mxPoint x="890" y="820" as="targetPoint" />
          </mxGeometry>
        </mxCell>
        <mxCell id="Rq11PXfO91AjFJ7hU85B-225" value="" style="endArrow=none;html=1;rounded=0;strokeColor=#a10808;strokeWidth=3;" edge="1" parent="1">
          <mxGeometry width="50" height="50" relative="1" as="geometry">
            <mxPoint x="890" y="820" as="sourcePoint" />
            <mxPoint x="910" y="780" as="targetPoint" />
          </mxGeometry>
        </mxCell>
        <mxCell id="Rq11PXfO91AjFJ7hU85B-226" value="" style="endArrow=none;html=1;rounded=0;strokeColor=#a10808;strokeWidth=3;" edge="1" parent="1">
          <mxGeometry width="50" height="50" relative="1" as="geometry">
            <mxPoint x="910" y="780" as="sourcePoint" />
            <mxPoint x="1010" y="780" as="targetPoint" />
          </mxGeometry>
        </mxCell>
        <mxCell id="Rq11PXfO91AjFJ7hU85B-227" value="" style="endArrow=none;html=1;rounded=0;strokeColor=#a10808;strokeWidth=3;" edge="1" parent="1">
          <mxGeometry width="50" height="50" relative="1" as="geometry">
            <mxPoint x="1030" y="820" as="sourcePoint" />
            <mxPoint x="1010" y="780" as="targetPoint" />
          </mxGeometry>
        </mxCell>
        <mxCell id="Rq11PXfO91AjFJ7hU85B-228" value="" style="endArrow=none;html=1;rounded=0;strokeColor=#a10808;strokeWidth=3;" edge="1" parent="1">
          <mxGeometry width="50" height="50" relative="1" as="geometry">
            <mxPoint x="1030" y="820" as="sourcePoint" />
            <mxPoint x="1080" y="820" as="targetPoint" />
          </mxGeometry>
        </mxCell>
        <mxCell id="Rq11PXfO91AjFJ7hU85B-234" value="" style="endArrow=none;html=1;rounded=0;strokeColor=#419806;strokeWidth=3;" edge="1" parent="1">
          <mxGeometry width="50" height="50" relative="1" as="geometry">
            <mxPoint x="200" y="700" as="sourcePoint" />
            <mxPoint x="290" y="700" as="targetPoint" />
          </mxGeometry>
        </mxCell>
        <mxCell id="Rq11PXfO91AjFJ7hU85B-235" value="" style="endArrow=none;html=1;rounded=0;strokeColor=#068aef;strokeWidth=3;" edge="1" parent="1">
          <mxGeometry width="50" height="50" relative="1" as="geometry">
            <mxPoint x="250" y="760" as="sourcePoint" />
            <mxPoint x="230" y="720" as="targetPoint" />
          </mxGeometry>
        </mxCell>
        <mxCell id="Rq11PXfO91AjFJ7hU85B-236" value="" style="endArrow=none;html=1;rounded=0;strokeColor=#068aef;strokeWidth=3;" edge="1" parent="1">
          <mxGeometry width="50" height="50" relative="1" as="geometry">
            <mxPoint x="250" y="760" as="sourcePoint" />
            <mxPoint x="350" y="760" as="targetPoint" />
          </mxGeometry>
        </mxCell>
        <mxCell id="Rq11PXfO91AjFJ7hU85B-237" value="" style="endArrow=none;html=1;rounded=0;strokeColor=#068aef;strokeWidth=3;" edge="1" parent="1">
          <mxGeometry width="50" height="50" relative="1" as="geometry">
            <mxPoint x="200" y="720" as="sourcePoint" />
            <mxPoint x="230" y="720" as="targetPoint" />
          </mxGeometry>
        </mxCell>
        <mxCell id="Rq11PXfO91AjFJ7hU85B-238" value="" style="endArrow=none;html=1;rounded=0;strokeColor=#a10808;strokeWidth=3;" edge="1" parent="1">
          <mxGeometry width="50" height="50" relative="1" as="geometry">
            <mxPoint x="200" y="780" as="sourcePoint" />
            <mxPoint x="290" y="780" as="targetPoint" />
          </mxGeometry>
        </mxCell>
        <mxCell id="Rq11PXfO91AjFJ7hU85B-239" value="" style="endArrow=none;html=1;rounded=0;strokeColor=#a10808;strokeWidth=3;" edge="1" parent="1">
          <mxGeometry width="50" height="50" relative="1" as="geometry">
            <mxPoint x="310" y="820" as="sourcePoint" />
            <mxPoint x="290" y="780" as="targetPoint" />
          </mxGeometry>
        </mxCell>
        <mxCell id="Rq11PXfO91AjFJ7hU85B-240" value="" style="endArrow=none;html=1;rounded=0;strokeColor=#a10808;strokeWidth=3;" edge="1" parent="1">
          <mxGeometry width="50" height="50" relative="1" as="geometry">
            <mxPoint x="310" y="820" as="sourcePoint" />
            <mxPoint x="410" y="820" as="targetPoint" />
          </mxGeometry>
        </mxCell>
        <mxCell id="Rq11PXfO91AjFJ7hU85B-241" value="" style="endArrow=none;html=1;rounded=0;strokeColor=#f5a905;strokeWidth=3;" edge="1" parent="1">
          <mxGeometry width="50" height="50" relative="1" as="geometry">
            <mxPoint x="230" y="880" as="sourcePoint" />
            <mxPoint x="250" y="840" as="targetPoint" />
          </mxGeometry>
        </mxCell>
        <mxCell id="Rq11PXfO91AjFJ7hU85B-242" value="" style="endArrow=none;html=1;rounded=0;strokeColor=#f5a905;strokeWidth=3;" edge="1" parent="1">
          <mxGeometry width="50" height="50" relative="1" as="geometry">
            <mxPoint x="250" y="840" as="sourcePoint" />
            <mxPoint x="470" y="840" as="targetPoint" />
          </mxGeometry>
        </mxCell>
        <mxCell id="Rq11PXfO91AjFJ7hU85B-243" value="" style="endArrow=none;html=1;rounded=0;strokeColor=#f5a905;strokeWidth=3;" edge="1" parent="1">
          <mxGeometry width="50" height="50" relative="1" as="geometry">
            <mxPoint x="490" y="880" as="sourcePoint" />
            <mxPoint x="470" y="840" as="targetPoint" />
          </mxGeometry>
        </mxCell>
        <mxCell id="Rq11PXfO91AjFJ7hU85B-244" value="" style="endArrow=none;html=1;rounded=0;strokeColor=#f5a905;strokeWidth=3;" edge="1" parent="1">
          <mxGeometry width="50" height="50" relative="1" as="geometry">
            <mxPoint x="250" y="880" as="sourcePoint" />
            <mxPoint x="470" y="880" as="targetPoint" />
          </mxGeometry>
        </mxCell>
        <mxCell id="Rq11PXfO91AjFJ7hU85B-245" value="" style="endArrow=none;html=1;rounded=0;strokeColor=#f5a905;strokeWidth=3;" edge="1" parent="1">
          <mxGeometry width="50" height="50" relative="1" as="geometry">
            <mxPoint x="470" y="880" as="sourcePoint" />
            <mxPoint x="490" y="840" as="targetPoint" />
          </mxGeometry>
        </mxCell>
        <mxCell id="Rq11PXfO91AjFJ7hU85B-253" value="" style="endArrow=none;html=1;rounded=0;strokeColor=#f5a905;strokeWidth=3;" edge="1" parent="1">
          <mxGeometry width="50" height="50" relative="1" as="geometry">
            <mxPoint x="200" y="880" as="sourcePoint" />
            <mxPoint x="230" y="880" as="targetPoint" />
          </mxGeometry>
        </mxCell>
        <mxCell id="Rq11PXfO91AjFJ7hU85B-258" value="" style="endArrow=none;html=1;rounded=0;strokeColor=#f5a905;strokeWidth=3;" edge="1" parent="1">
          <mxGeometry width="50" height="50" relative="1" as="geometry">
            <mxPoint x="250" y="880" as="sourcePoint" />
            <mxPoint x="230" y="840" as="targetPoint" />
          </mxGeometry>
        </mxCell>
        <mxCell id="Rq11PXfO91AjFJ7hU85B-259" value="" style="endArrow=none;html=1;rounded=0;strokeColor=#f5a905;strokeWidth=3;" edge="1" parent="1">
          <mxGeometry width="50" height="50" relative="1" as="geometry">
            <mxPoint x="200" y="840" as="sourcePoint" />
            <mxPoint x="230" y="840" as="targetPoint" />
          </mxGeometry>
        </mxCell>
        <mxCell id="Rq11PXfO91AjFJ7hU85B-260" value="" style="endArrow=none;html=1;rounded=0;strokeColor=#f5a905;strokeWidth=3;" edge="1" parent="1">
          <mxGeometry width="50" height="50" relative="1" as="geometry">
            <mxPoint x="490" y="840" as="sourcePoint" />
            <mxPoint x="710" y="840" as="targetPoint" />
          </mxGeometry>
        </mxCell>
        <mxCell id="Rq11PXfO91AjFJ7hU85B-261" value="" style="endArrow=none;html=1;rounded=0;strokeColor=#f5a905;strokeWidth=3;" edge="1" parent="1">
          <mxGeometry width="50" height="50" relative="1" as="geometry">
            <mxPoint x="730" y="880" as="sourcePoint" />
            <mxPoint x="710" y="840" as="targetPoint" />
          </mxGeometry>
        </mxCell>
        <mxCell id="Rq11PXfO91AjFJ7hU85B-262" value="" style="endArrow=none;html=1;rounded=0;strokeColor=#f5a905;strokeWidth=3;" edge="1" parent="1">
          <mxGeometry width="50" height="50" relative="1" as="geometry">
            <mxPoint x="490" y="880" as="sourcePoint" />
            <mxPoint x="710" y="880" as="targetPoint" />
          </mxGeometry>
        </mxCell>
        <mxCell id="Rq11PXfO91AjFJ7hU85B-263" value="" style="endArrow=none;html=1;rounded=0;strokeColor=#f5a905;strokeWidth=3;" edge="1" parent="1">
          <mxGeometry width="50" height="50" relative="1" as="geometry">
            <mxPoint x="710" y="880" as="sourcePoint" />
            <mxPoint x="730" y="840" as="targetPoint" />
          </mxGeometry>
        </mxCell>
        <mxCell id="Rq11PXfO91AjFJ7hU85B-264" value="" style="endArrow=none;html=1;rounded=0;strokeColor=#f5a905;strokeWidth=3;" edge="1" parent="1">
          <mxGeometry width="50" height="50" relative="1" as="geometry">
            <mxPoint x="730" y="880" as="sourcePoint" />
            <mxPoint x="760" y="880" as="targetPoint" />
          </mxGeometry>
        </mxCell>
        <mxCell id="Rq11PXfO91AjFJ7hU85B-265" value="" style="endArrow=none;html=1;rounded=0;strokeColor=#f5a905;strokeWidth=3;" edge="1" parent="1">
          <mxGeometry width="50" height="50" relative="1" as="geometry">
            <mxPoint x="730" y="840" as="sourcePoint" />
            <mxPoint x="760" y="840" as="targetPoint" />
          </mxGeometry>
        </mxCell>
        <mxCell id="Rq11PXfO91AjFJ7hU85B-266" value="" style="endArrow=none;html=1;rounded=0;strokeColor=#409905;strokeWidth=3;" edge="1" parent="1">
          <mxGeometry width="50" height="50" relative="1" as="geometry">
            <mxPoint x="290" y="940" as="sourcePoint" />
            <mxPoint x="310" y="900" as="targetPoint" />
          </mxGeometry>
        </mxCell>
        <mxCell id="Rq11PXfO91AjFJ7hU85B-267" value="" style="endArrow=none;html=1;rounded=0;strokeColor=#409905;strokeWidth=3;" edge="1" parent="1">
          <mxGeometry width="50" height="50" relative="1" as="geometry">
            <mxPoint x="310" y="900" as="sourcePoint" />
            <mxPoint x="530" y="900" as="targetPoint" />
          </mxGeometry>
        </mxCell>
        <mxCell id="Rq11PXfO91AjFJ7hU85B-268" value="" style="endArrow=none;html=1;rounded=0;strokeColor=#409905;strokeWidth=3;" edge="1" parent="1">
          <mxGeometry width="50" height="50" relative="1" as="geometry">
            <mxPoint x="550" y="940" as="sourcePoint" />
            <mxPoint x="530" y="900" as="targetPoint" />
          </mxGeometry>
        </mxCell>
        <mxCell id="Rq11PXfO91AjFJ7hU85B-269" value="" style="endArrow=none;html=1;rounded=0;strokeColor=#409905;strokeWidth=3;" edge="1" parent="1">
          <mxGeometry width="50" height="50" relative="1" as="geometry">
            <mxPoint x="310" y="940" as="sourcePoint" />
            <mxPoint x="530" y="940" as="targetPoint" />
          </mxGeometry>
        </mxCell>
        <mxCell id="Rq11PXfO91AjFJ7hU85B-270" value="" style="endArrow=none;html=1;rounded=0;strokeColor=#409905;strokeWidth=3;" edge="1" parent="1">
          <mxGeometry width="50" height="50" relative="1" as="geometry">
            <mxPoint x="530" y="940" as="sourcePoint" />
            <mxPoint x="550" y="900" as="targetPoint" />
          </mxGeometry>
        </mxCell>
        <mxCell id="Rq11PXfO91AjFJ7hU85B-271" value="" style="endArrow=none;html=1;rounded=0;strokeColor=#409905;strokeWidth=3;" edge="1" parent="1">
          <mxGeometry width="50" height="50" relative="1" as="geometry">
            <mxPoint x="260" y="940" as="sourcePoint" />
            <mxPoint x="290" y="940" as="targetPoint" />
          </mxGeometry>
        </mxCell>
        <mxCell id="Rq11PXfO91AjFJ7hU85B-272" value="" style="endArrow=none;html=1;rounded=0;strokeColor=#409905;strokeWidth=3;" edge="1" parent="1">
          <mxGeometry width="50" height="50" relative="1" as="geometry">
            <mxPoint x="310" y="940" as="sourcePoint" />
            <mxPoint x="290" y="900" as="targetPoint" />
          </mxGeometry>
        </mxCell>
        <mxCell id="Rq11PXfO91AjFJ7hU85B-273" value="" style="endArrow=none;html=1;rounded=0;strokeColor=#409905;strokeWidth=3;" edge="1" parent="1">
          <mxGeometry width="50" height="50" relative="1" as="geometry">
            <mxPoint x="260" y="900" as="sourcePoint" />
            <mxPoint x="290" y="900" as="targetPoint" />
          </mxGeometry>
        </mxCell>
        <mxCell id="Rq11PXfO91AjFJ7hU85B-274" value="" style="endArrow=none;html=1;rounded=0;strokeColor=#409905;strokeWidth=3;" edge="1" parent="1">
          <mxGeometry width="50" height="50" relative="1" as="geometry">
            <mxPoint x="550" y="900" as="sourcePoint" />
            <mxPoint x="770" y="900" as="targetPoint" />
          </mxGeometry>
        </mxCell>
        <mxCell id="Rq11PXfO91AjFJ7hU85B-275" value="" style="endArrow=none;html=1;rounded=0;strokeColor=#409905;strokeWidth=3;" edge="1" parent="1">
          <mxGeometry width="50" height="50" relative="1" as="geometry">
            <mxPoint x="790" y="940" as="sourcePoint" />
            <mxPoint x="770" y="900" as="targetPoint" />
          </mxGeometry>
        </mxCell>
        <mxCell id="Rq11PXfO91AjFJ7hU85B-276" value="" style="endArrow=none;html=1;rounded=0;strokeColor=#409905;strokeWidth=3;" edge="1" parent="1">
          <mxGeometry width="50" height="50" relative="1" as="geometry">
            <mxPoint x="550" y="940" as="sourcePoint" />
            <mxPoint x="770" y="940" as="targetPoint" />
          </mxGeometry>
        </mxCell>
        <mxCell id="Rq11PXfO91AjFJ7hU85B-277" value="" style="endArrow=none;html=1;rounded=0;strokeColor=#409905;strokeWidth=3;" edge="1" parent="1">
          <mxGeometry width="50" height="50" relative="1" as="geometry">
            <mxPoint x="770" y="940" as="sourcePoint" />
            <mxPoint x="790" y="900" as="targetPoint" />
          </mxGeometry>
        </mxCell>
        <mxCell id="Rq11PXfO91AjFJ7hU85B-278" value="" style="endArrow=none;html=1;rounded=0;strokeColor=#409905;strokeWidth=3;" edge="1" parent="1">
          <mxGeometry width="50" height="50" relative="1" as="geometry">
            <mxPoint x="790" y="940" as="sourcePoint" />
            <mxPoint x="820" y="940" as="targetPoint" />
          </mxGeometry>
        </mxCell>
        <mxCell id="Rq11PXfO91AjFJ7hU85B-279" value="" style="endArrow=none;html=1;rounded=0;strokeColor=#409905;strokeWidth=3;" edge="1" parent="1">
          <mxGeometry width="50" height="50" relative="1" as="geometry">
            <mxPoint x="790" y="900" as="sourcePoint" />
            <mxPoint x="820" y="900" as="targetPoint" />
          </mxGeometry>
        </mxCell>
        <mxCell id="Rq11PXfO91AjFJ7hU85B-280" value="" style="endArrow=none;html=1;rounded=0;strokeColor=#248aef;strokeWidth=3;" edge="1" parent="1">
          <mxGeometry width="50" height="50" relative="1" as="geometry">
            <mxPoint x="350" y="1000" as="sourcePoint" />
            <mxPoint x="370" y="960" as="targetPoint" />
          </mxGeometry>
        </mxCell>
        <mxCell id="Rq11PXfO91AjFJ7hU85B-281" value="" style="endArrow=none;html=1;rounded=0;strokeColor=#248aef;strokeWidth=3;" edge="1" parent="1">
          <mxGeometry width="50" height="50" relative="1" as="geometry">
            <mxPoint x="370" y="960" as="sourcePoint" />
            <mxPoint x="590" y="960" as="targetPoint" />
          </mxGeometry>
        </mxCell>
        <mxCell id="Rq11PXfO91AjFJ7hU85B-282" value="" style="endArrow=none;html=1;rounded=0;strokeColor=#248aef;strokeWidth=3;" edge="1" parent="1">
          <mxGeometry width="50" height="50" relative="1" as="geometry">
            <mxPoint x="610" y="1000" as="sourcePoint" />
            <mxPoint x="590" y="960" as="targetPoint" />
          </mxGeometry>
        </mxCell>
        <mxCell id="Rq11PXfO91AjFJ7hU85B-283" value="" style="endArrow=none;html=1;rounded=0;strokeColor=#258aef;strokeWidth=3;" edge="1" parent="1">
          <mxGeometry width="50" height="50" relative="1" as="geometry">
            <mxPoint x="370" y="1000" as="sourcePoint" />
            <mxPoint x="590" y="1000" as="targetPoint" />
          </mxGeometry>
        </mxCell>
        <mxCell id="Rq11PXfO91AjFJ7hU85B-284" value="" style="endArrow=none;html=1;rounded=0;strokeColor=#248aef;strokeWidth=3;" edge="1" parent="1">
          <mxGeometry width="50" height="50" relative="1" as="geometry">
            <mxPoint x="590" y="1000" as="sourcePoint" />
            <mxPoint x="610" y="960" as="targetPoint" />
          </mxGeometry>
        </mxCell>
        <mxCell id="Rq11PXfO91AjFJ7hU85B-285" value="" style="endArrow=none;html=1;rounded=0;strokeColor=#258aef;strokeWidth=3;" edge="1" parent="1">
          <mxGeometry width="50" height="50" relative="1" as="geometry">
            <mxPoint x="320" y="1000" as="sourcePoint" />
            <mxPoint x="350" y="1000" as="targetPoint" />
          </mxGeometry>
        </mxCell>
        <mxCell id="Rq11PXfO91AjFJ7hU85B-286" value="" style="endArrow=none;html=1;rounded=0;strokeColor=#248aef;strokeWidth=3;" edge="1" parent="1">
          <mxGeometry width="50" height="50" relative="1" as="geometry">
            <mxPoint x="370" y="1000" as="sourcePoint" />
            <mxPoint x="350" y="960" as="targetPoint" />
          </mxGeometry>
        </mxCell>
        <mxCell id="Rq11PXfO91AjFJ7hU85B-287" value="" style="endArrow=none;html=1;rounded=0;strokeColor=#248aef;strokeWidth=3;" edge="1" parent="1">
          <mxGeometry width="50" height="50" relative="1" as="geometry">
            <mxPoint x="320" y="960" as="sourcePoint" />
            <mxPoint x="350" y="960" as="targetPoint" />
          </mxGeometry>
        </mxCell>
        <mxCell id="Rq11PXfO91AjFJ7hU85B-288" value="" style="endArrow=none;html=1;rounded=0;strokeColor=#248aef;strokeWidth=3;" edge="1" parent="1">
          <mxGeometry width="50" height="50" relative="1" as="geometry">
            <mxPoint x="610" y="960" as="sourcePoint" />
            <mxPoint x="830" y="960" as="targetPoint" />
          </mxGeometry>
        </mxCell>
        <mxCell id="Rq11PXfO91AjFJ7hU85B-289" value="" style="endArrow=none;html=1;rounded=0;strokeColor=#248aef;strokeWidth=3;" edge="1" parent="1">
          <mxGeometry width="50" height="50" relative="1" as="geometry">
            <mxPoint x="850" y="1000" as="sourcePoint" />
            <mxPoint x="830" y="960" as="targetPoint" />
          </mxGeometry>
        </mxCell>
        <mxCell id="Rq11PXfO91AjFJ7hU85B-290" value="" style="endArrow=none;html=1;rounded=0;strokeColor=#258aef;strokeWidth=3;" edge="1" parent="1">
          <mxGeometry width="50" height="50" relative="1" as="geometry">
            <mxPoint x="610" y="1000" as="sourcePoint" />
            <mxPoint x="830" y="1000" as="targetPoint" />
          </mxGeometry>
        </mxCell>
        <mxCell id="Rq11PXfO91AjFJ7hU85B-291" value="" style="endArrow=none;html=1;rounded=0;strokeColor=#248aef;strokeWidth=3;" edge="1" parent="1">
          <mxGeometry width="50" height="50" relative="1" as="geometry">
            <mxPoint x="830" y="1000" as="sourcePoint" />
            <mxPoint x="850" y="960" as="targetPoint" />
          </mxGeometry>
        </mxCell>
        <mxCell id="Rq11PXfO91AjFJ7hU85B-292" value="" style="endArrow=none;html=1;rounded=0;strokeColor=#258aef;strokeWidth=3;" edge="1" parent="1">
          <mxGeometry width="50" height="50" relative="1" as="geometry">
            <mxPoint x="850" y="1000" as="sourcePoint" />
            <mxPoint x="880" y="1000" as="targetPoint" />
          </mxGeometry>
        </mxCell>
        <mxCell id="Rq11PXfO91AjFJ7hU85B-293" value="" style="endArrow=none;html=1;rounded=0;strokeColor=#248aef;strokeWidth=3;" edge="1" parent="1">
          <mxGeometry width="50" height="50" relative="1" as="geometry">
            <mxPoint x="850" y="960" as="sourcePoint" />
            <mxPoint x="880" y="960" as="targetPoint" />
          </mxGeometry>
        </mxCell>
        <mxCell id="Rq11PXfO91AjFJ7hU85B-294" value="" style="endArrow=none;html=1;rounded=0;strokeColor=#a10c08;strokeWidth=3;" edge="1" parent="1">
          <mxGeometry width="50" height="50" relative="1" as="geometry">
            <mxPoint x="410" y="1060" as="sourcePoint" />
            <mxPoint x="430" y="1020" as="targetPoint" />
          </mxGeometry>
        </mxCell>
        <mxCell id="Rq11PXfO91AjFJ7hU85B-295" value="" style="endArrow=none;html=1;rounded=0;strokeColor=#a10c08;strokeWidth=3;" edge="1" parent="1">
          <mxGeometry width="50" height="50" relative="1" as="geometry">
            <mxPoint x="430" y="1020" as="sourcePoint" />
            <mxPoint x="650" y="1020" as="targetPoint" />
          </mxGeometry>
        </mxCell>
        <mxCell id="Rq11PXfO91AjFJ7hU85B-296" value="" style="endArrow=none;html=1;rounded=0;strokeColor=#a10c08;strokeWidth=3;" edge="1" parent="1">
          <mxGeometry width="50" height="50" relative="1" as="geometry">
            <mxPoint x="670" y="1060" as="sourcePoint" />
            <mxPoint x="650" y="1020" as="targetPoint" />
          </mxGeometry>
        </mxCell>
        <mxCell id="Rq11PXfO91AjFJ7hU85B-297" value="" style="endArrow=none;html=1;rounded=0;strokeColor=#a10c08;strokeWidth=3;" edge="1" parent="1">
          <mxGeometry width="50" height="50" relative="1" as="geometry">
            <mxPoint x="430" y="1060" as="sourcePoint" />
            <mxPoint x="650" y="1060" as="targetPoint" />
          </mxGeometry>
        </mxCell>
        <mxCell id="Rq11PXfO91AjFJ7hU85B-298" value="" style="endArrow=none;html=1;rounded=0;strokeColor=#a10c08;strokeWidth=3;" edge="1" parent="1">
          <mxGeometry width="50" height="50" relative="1" as="geometry">
            <mxPoint x="650" y="1060" as="sourcePoint" />
            <mxPoint x="670" y="1020" as="targetPoint" />
          </mxGeometry>
        </mxCell>
        <mxCell id="Rq11PXfO91AjFJ7hU85B-299" value="" style="endArrow=none;html=1;rounded=0;strokeColor=#a10c08;strokeWidth=3;" edge="1" parent="1">
          <mxGeometry width="50" height="50" relative="1" as="geometry">
            <mxPoint x="380" y="1060" as="sourcePoint" />
            <mxPoint x="410" y="1060" as="targetPoint" />
          </mxGeometry>
        </mxCell>
        <mxCell id="Rq11PXfO91AjFJ7hU85B-300" value="" style="endArrow=none;html=1;rounded=0;strokeColor=#a10c08;strokeWidth=3;" edge="1" parent="1">
          <mxGeometry width="50" height="50" relative="1" as="geometry">
            <mxPoint x="430" y="1060" as="sourcePoint" />
            <mxPoint x="410" y="1020" as="targetPoint" />
          </mxGeometry>
        </mxCell>
        <mxCell id="Rq11PXfO91AjFJ7hU85B-301" value="" style="endArrow=none;html=1;rounded=0;strokeColor=#a10c08;strokeWidth=3;" edge="1" parent="1">
          <mxGeometry width="50" height="50" relative="1" as="geometry">
            <mxPoint x="380" y="1020" as="sourcePoint" />
            <mxPoint x="410" y="1020" as="targetPoint" />
          </mxGeometry>
        </mxCell>
        <mxCell id="Rq11PXfO91AjFJ7hU85B-302" value="" style="endArrow=none;html=1;rounded=0;strokeColor=#a10c08;strokeWidth=3;" edge="1" parent="1">
          <mxGeometry width="50" height="50" relative="1" as="geometry">
            <mxPoint x="670" y="1020" as="sourcePoint" />
            <mxPoint x="890" y="1020" as="targetPoint" />
          </mxGeometry>
        </mxCell>
        <mxCell id="Rq11PXfO91AjFJ7hU85B-303" value="" style="endArrow=none;html=1;rounded=0;strokeColor=#a10c08;strokeWidth=3;" edge="1" parent="1">
          <mxGeometry width="50" height="50" relative="1" as="geometry">
            <mxPoint x="910" y="1060" as="sourcePoint" />
            <mxPoint x="890" y="1020" as="targetPoint" />
          </mxGeometry>
        </mxCell>
        <mxCell id="Rq11PXfO91AjFJ7hU85B-304" value="" style="endArrow=none;html=1;rounded=0;strokeColor=#a10c08;strokeWidth=3;" edge="1" parent="1">
          <mxGeometry width="50" height="50" relative="1" as="geometry">
            <mxPoint x="670" y="1060" as="sourcePoint" />
            <mxPoint x="890" y="1060" as="targetPoint" />
          </mxGeometry>
        </mxCell>
        <mxCell id="Rq11PXfO91AjFJ7hU85B-305" value="" style="endArrow=none;html=1;rounded=0;strokeColor=#a10c08;strokeWidth=3;" edge="1" parent="1">
          <mxGeometry width="50" height="50" relative="1" as="geometry">
            <mxPoint x="890" y="1060" as="sourcePoint" />
            <mxPoint x="910" y="1020" as="targetPoint" />
          </mxGeometry>
        </mxCell>
        <mxCell id="Rq11PXfO91AjFJ7hU85B-306" value="" style="endArrow=none;html=1;rounded=0;strokeColor=#a10c08;strokeWidth=3;" edge="1" parent="1">
          <mxGeometry width="50" height="50" relative="1" as="geometry">
            <mxPoint x="910" y="1060" as="sourcePoint" />
            <mxPoint x="940" y="1060" as="targetPoint" />
          </mxGeometry>
        </mxCell>
        <mxCell id="Rq11PXfO91AjFJ7hU85B-307" value="" style="endArrow=none;html=1;rounded=0;strokeColor=#a10c08;strokeWidth=3;" edge="1" parent="1">
          <mxGeometry width="50" height="50" relative="1" as="geometry">
            <mxPoint x="910" y="1020" as="sourcePoint" />
            <mxPoint x="940" y="1020" as="targetPoint" />
          </mxGeometry>
        </mxCell>
        <mxCell id="Rq11PXfO91AjFJ7hU85B-308" value="" style="endArrow=none;html=1;rounded=0;strokeColor=#160160;strokeWidth=3;" edge="1" parent="1">
          <mxGeometry width="50" height="50" relative="1" as="geometry">
            <mxPoint x="1055" y="579.58" as="sourcePoint" />
            <mxPoint x="1080" y="580" as="targetPoint" />
          </mxGeometry>
        </mxCell>
        <mxCell id="Rq11PXfO91AjFJ7hU85B-309" value="" style="endArrow=none;html=1;rounded=0;strokeColor=#160160;strokeWidth=3;" edge="1" parent="1">
          <mxGeometry width="50" height="50" relative="1" as="geometry">
            <mxPoint x="1056" y="539.58" as="sourcePoint" />
            <mxPoint x="1080" y="540" as="targetPoint" />
          </mxGeometry>
        </mxCell>
        <mxCell id="Rq11PXfO91AjFJ7hU85B-310" value="" style="endArrow=classic;html=1;rounded=0;strokeColor=#0a0a0a;strokeWidth=3;endFill=1;" edge="1" parent="1">
          <mxGeometry width="50" height="50" relative="1" as="geometry">
            <mxPoint x="1070" y="520" as="sourcePoint" />
            <mxPoint x="1090" y="480" as="targetPoint" />
          </mxGeometry>
        </mxCell>
        <mxCell id="Rq11PXfO91AjFJ7hU85B-311" value="" style="endArrow=none;html=1;rounded=0;strokeColor=#0a0a0a;strokeWidth=3;dashed=1;" edge="1" parent="1">
          <mxGeometry width="50" height="50" relative="1" as="geometry">
            <mxPoint x="1091" y="520" as="sourcePoint" />
            <mxPoint x="1071" y="480" as="targetPoint" />
          </mxGeometry>
        </mxCell>
        <mxCell id="Rq11PXfO91AjFJ7hU85B-312" value="DQS_0" style="text;html=1;align=center;verticalAlign=middle;whiteSpace=wrap;rounded=0;fontColor=#f5a904;fontStyle=1" vertex="1" parent="1">
          <mxGeometry x="130" y="610" width="60" height="20" as="geometry" />
        </mxCell>
        <mxCell id="Rq11PXfO91AjFJ7hU85B-313" value="DQS_90" style="text;html=1;align=center;verticalAlign=middle;whiteSpace=wrap;rounded=0;fontColor=#419805;fontStyle=1" vertex="1" parent="1">
          <mxGeometry x="130" y="670" width="60" height="20" as="geometry" />
        </mxCell>
        <mxCell id="Rq11PXfO91AjFJ7hU85B-314" value="DQS_180" style="text;html=1;align=center;verticalAlign=middle;whiteSpace=wrap;rounded=0;fontColor=#248aef;fontStyle=1" vertex="1" parent="1">
          <mxGeometry x="130" y="730" width="60" height="20" as="geometry" />
        </mxCell>
        <mxCell id="Rq11PXfO91AjFJ7hU85B-315" value="DQS_270" style="text;html=1;align=center;verticalAlign=middle;whiteSpace=wrap;rounded=0;fontColor=#a10c08;fontStyle=1" vertex="1" parent="1">
          <mxGeometry x="130" y="790" width="60" height="20" as="geometry" />
        </mxCell>
        <mxCell id="Rq11PXfO91AjFJ7hU85B-316" value="Splitter 0" style="text;html=1;align=center;verticalAlign=middle;whiteSpace=wrap;rounded=0;fontColor=#f5a904;fontStyle=1" vertex="1" parent="1">
          <mxGeometry x="130" y="850" width="60" height="20" as="geometry" />
        </mxCell>
        <mxCell id="Rq11PXfO91AjFJ7hU85B-317" value="Splitter 90" style="text;html=1;align=center;verticalAlign=middle;whiteSpace=wrap;rounded=0;fontColor=#419805;fontStyle=1" vertex="1" parent="1">
          <mxGeometry x="125" y="910" width="70" height="20" as="geometry" />
        </mxCell>
        <mxCell id="Rq11PXfO91AjFJ7hU85B-318" value="Splitter 180" style="text;html=1;align=center;verticalAlign=middle;whiteSpace=wrap;rounded=0;fontColor=#248aef;fontStyle=1" vertex="1" parent="1">
          <mxGeometry x="125" y="970" width="70" height="20" as="geometry" />
        </mxCell>
        <mxCell id="Rq11PXfO91AjFJ7hU85B-319" value="Splitter 270" style="text;html=1;align=center;verticalAlign=middle;whiteSpace=wrap;rounded=0;fontColor=#a10c08;fontStyle=1" vertex="1" parent="1">
          <mxGeometry x="125" y="1030" width="70" height="20" as="geometry" />
        </mxCell>
        <mxCell id="Rq11PXfO91AjFJ7hU85B-321" value="" style="endArrow=none;dashed=1;html=1;rounded=0;" edge="1" parent="1" target="Rq11PXfO91AjFJ7hU85B-320">
          <mxGeometry width="50" height="50" relative="1" as="geometry">
            <mxPoint x="240" y="1080" as="sourcePoint" />
            <mxPoint x="240" y="440" as="targetPoint" />
          </mxGeometry>
        </mxCell>
        <mxCell id="Rq11PXfO91AjFJ7hU85B-320" value="UI0" style="text;html=1;align=center;verticalAlign=middle;whiteSpace=wrap;rounded=0;fontColor=#0a0a0a;fontStyle=1;strokeColor=none;" vertex="1" parent="1">
          <mxGeometry x="220" y="550" width="40" height="20" as="geometry" />
        </mxCell>
        <mxCell id="Rq11PXfO91AjFJ7hU85B-323" value="" style="endArrow=none;dashed=1;html=1;rounded=0;" edge="1" parent="1" target="Rq11PXfO91AjFJ7hU85B-322">
          <mxGeometry width="50" height="50" relative="1" as="geometry">
            <mxPoint x="300" y="1080" as="sourcePoint" />
            <mxPoint x="300" y="440" as="targetPoint" />
          </mxGeometry>
        </mxCell>
        <mxCell id="Rq11PXfO91AjFJ7hU85B-322" value="UI1" style="text;html=1;align=center;verticalAlign=middle;whiteSpace=wrap;rounded=0;fontColor=#0a0a0a;fontStyle=1;strokeColor=none;" vertex="1" parent="1">
          <mxGeometry x="280" y="550" width="40" height="20" as="geometry" />
        </mxCell>
        <mxCell id="Rq11PXfO91AjFJ7hU85B-324" value="UI2" style="text;html=1;align=center;verticalAlign=middle;whiteSpace=wrap;rounded=0;fontColor=#0a0a0a;fontStyle=1;strokeColor=none;" vertex="1" parent="1">
          <mxGeometry x="340" y="550" width="40" height="20" as="geometry" />
        </mxCell>
        <mxCell id="Rq11PXfO91AjFJ7hU85B-325" value="UI3" style="text;html=1;align=center;verticalAlign=middle;whiteSpace=wrap;rounded=0;fontColor=#0a0a0a;fontStyle=1;strokeColor=none;" vertex="1" parent="1">
          <mxGeometry x="400" y="550" width="40" height="20" as="geometry" />
        </mxCell>
        <mxCell id="Rq11PXfO91AjFJ7hU85B-326" value="UI4" style="text;html=1;align=center;verticalAlign=middle;whiteSpace=wrap;rounded=0;fontColor=#0a0a0a;fontStyle=1;strokeColor=none;" vertex="1" parent="1">
          <mxGeometry x="460" y="550" width="40" height="20" as="geometry" />
        </mxCell>
        <mxCell id="Rq11PXfO91AjFJ7hU85B-327" value="UI5" style="text;html=1;align=center;verticalAlign=middle;whiteSpace=wrap;rounded=0;fontColor=#0a0a0a;fontStyle=1;strokeColor=none;" vertex="1" parent="1">
          <mxGeometry x="520" y="550" width="40" height="20" as="geometry" />
        </mxCell>
        <mxCell id="Rq11PXfO91AjFJ7hU85B-328" value="UI6" style="text;html=1;align=center;verticalAlign=middle;whiteSpace=wrap;rounded=0;fontColor=#0a0a0a;fontStyle=1;strokeColor=none;" vertex="1" parent="1">
          <mxGeometry x="580" y="550" width="40" height="20" as="geometry" />
        </mxCell>
        <mxCell id="Rq11PXfO91AjFJ7hU85B-329" value="UI7" style="text;html=1;align=center;verticalAlign=middle;whiteSpace=wrap;rounded=0;fontColor=#0a0a0a;fontStyle=1;strokeColor=none;" vertex="1" parent="1">
          <mxGeometry x="640" y="550" width="40" height="20" as="geometry" />
        </mxCell>
        <mxCell id="Rq11PXfO91AjFJ7hU85B-330" value="UI0" style="text;html=1;align=center;verticalAlign=middle;whiteSpace=wrap;rounded=0;fontColor=#0a0a0a;fontStyle=1;strokeColor=none;" vertex="1" parent="1">
          <mxGeometry x="700" y="550" width="40" height="20" as="geometry" />
        </mxCell>
        <mxCell id="Rq11PXfO91AjFJ7hU85B-331" value="UI1" style="text;html=1;align=center;verticalAlign=middle;whiteSpace=wrap;rounded=0;fontColor=#0a0a0a;fontStyle=1;strokeColor=none;" vertex="1" parent="1">
          <mxGeometry x="760" y="550" width="40" height="20" as="geometry" />
        </mxCell>
        <mxCell id="Rq11PXfO91AjFJ7hU85B-332" value="UI2" style="text;html=1;align=center;verticalAlign=middle;whiteSpace=wrap;rounded=0;fontColor=#0a0a0a;fontStyle=1;strokeColor=none;" vertex="1" parent="1">
          <mxGeometry x="820" y="550" width="40" height="20" as="geometry" />
        </mxCell>
        <mxCell id="Rq11PXfO91AjFJ7hU85B-333" value="UI3" style="text;html=1;align=center;verticalAlign=middle;whiteSpace=wrap;rounded=0;fontColor=#0a0a0a;fontStyle=1;strokeColor=none;" vertex="1" parent="1">
          <mxGeometry x="880" y="550" width="40" height="20" as="geometry" />
        </mxCell>
        <mxCell id="Rq11PXfO91AjFJ7hU85B-334" value="UI4" style="text;html=1;align=center;verticalAlign=middle;whiteSpace=wrap;rounded=0;fontColor=#0a0a0a;fontStyle=1;strokeColor=none;" vertex="1" parent="1">
          <mxGeometry x="940" y="550" width="40" height="20" as="geometry" />
        </mxCell>
        <mxCell id="Rq11PXfO91AjFJ7hU85B-335" value="UI5" style="text;html=1;align=center;verticalAlign=middle;whiteSpace=wrap;rounded=0;fontColor=#0a0a0a;fontStyle=1;strokeColor=none;" vertex="1" parent="1">
          <mxGeometry x="1000" y="550" width="40" height="20" as="geometry" />
        </mxCell>
        <mxCell id="Rq11PXfO91AjFJ7hU85B-339" value="" style="endArrow=none;dashed=1;html=1;rounded=0;" edge="1" parent="1" target="Rq11PXfO91AjFJ7hU85B-338">
          <mxGeometry width="50" height="50" relative="1" as="geometry">
            <mxPoint x="360" y="1080" as="sourcePoint" />
            <mxPoint x="360" y="440" as="targetPoint" />
          </mxGeometry>
        </mxCell>
        <mxCell id="Rq11PXfO91AjFJ7hU85B-338" value="UI0" style="text;html=1;align=center;verticalAlign=middle;whiteSpace=wrap;rounded=0;fontColor=#0a0a0a;fontStyle=1;strokeColor=none;" vertex="1" parent="1">
          <mxGeometry x="340" y="850" width="40" height="20" as="geometry" />
        </mxCell>
        <mxCell id="Rq11PXfO91AjFJ7hU85B-341" value="" style="endArrow=none;dashed=1;html=1;rounded=0;" edge="1" parent="1" target="Rq11PXfO91AjFJ7hU85B-340">
          <mxGeometry width="50" height="50" relative="1" as="geometry">
            <mxPoint x="420" y="1080" as="sourcePoint" />
            <mxPoint x="420" y="440" as="targetPoint" />
          </mxGeometry>
        </mxCell>
        <mxCell id="Rq11PXfO91AjFJ7hU85B-340" value="UI1" style="text;html=1;align=center;verticalAlign=middle;whiteSpace=wrap;rounded=0;fontColor=#0a0a0a;fontStyle=1;strokeColor=none;" vertex="1" parent="1">
          <mxGeometry x="400" y="910" width="40" height="20" as="geometry" />
        </mxCell>
        <mxCell id="Rq11PXfO91AjFJ7hU85B-342" value="UI2" style="text;html=1;align=center;verticalAlign=middle;whiteSpace=wrap;rounded=0;fontColor=#0a0a0a;fontStyle=1;strokeColor=none;" vertex="1" parent="1">
          <mxGeometry x="460" y="970" width="40" height="20" as="geometry" />
        </mxCell>
        <mxCell id="Rq11PXfO91AjFJ7hU85B-343" value="UI3" style="text;html=1;align=center;verticalAlign=middle;whiteSpace=wrap;rounded=0;fontColor=#0a0a0a;fontStyle=1;strokeColor=none;" vertex="1" parent="1">
          <mxGeometry x="520" y="1030" width="40" height="20" as="geometry" />
        </mxCell>
        <mxCell id="Rq11PXfO91AjFJ7hU85B-344" value="UI4" style="text;html=1;align=center;verticalAlign=middle;whiteSpace=wrap;rounded=0;fontColor=#0a0a0a;fontStyle=1;strokeColor=none;" vertex="1" parent="1">
          <mxGeometry x="580" y="850" width="40" height="20" as="geometry" />
        </mxCell>
        <mxCell id="Rq11PXfO91AjFJ7hU85B-348" value="" style="endArrow=none;dashed=1;html=1;rounded=0;" edge="1" parent="1" target="Rq11PXfO91AjFJ7hU85B-345">
          <mxGeometry width="50" height="50" relative="1" as="geometry">
            <mxPoint x="660" y="1080" as="sourcePoint" />
            <mxPoint x="660" y="430" as="targetPoint" />
          </mxGeometry>
        </mxCell>
        <mxCell id="Rq11PXfO91AjFJ7hU85B-345" value="UI5" style="text;html=1;align=center;verticalAlign=middle;whiteSpace=wrap;rounded=0;fontColor=#0a0a0a;fontStyle=1;strokeColor=none;" vertex="1" parent="1">
          <mxGeometry x="640" y="910" width="40" height="20" as="geometry" />
        </mxCell>
        <mxCell id="Rq11PXfO91AjFJ7hU85B-349" value="" style="endArrow=none;dashed=1;html=1;rounded=0;" edge="1" parent="1" target="Rq11PXfO91AjFJ7hU85B-346">
          <mxGeometry width="50" height="50" relative="1" as="geometry">
            <mxPoint x="720" y="1080" as="sourcePoint" />
            <mxPoint x="720" y="430" as="targetPoint" />
          </mxGeometry>
        </mxCell>
        <mxCell id="Rq11PXfO91AjFJ7hU85B-346" value="UI6" style="text;html=1;align=center;verticalAlign=middle;whiteSpace=wrap;rounded=0;fontColor=#0a0a0a;fontStyle=1;strokeColor=none;" vertex="1" parent="1">
          <mxGeometry x="700" y="970" width="40" height="20" as="geometry" />
        </mxCell>
        <mxCell id="Rq11PXfO91AjFJ7hU85B-350" value="" style="endArrow=none;dashed=1;html=1;rounded=0;" edge="1" parent="1" target="Rq11PXfO91AjFJ7hU85B-347">
          <mxGeometry width="50" height="50" relative="1" as="geometry">
            <mxPoint x="780" y="1080" as="sourcePoint" />
            <mxPoint x="780" y="430" as="targetPoint" />
          </mxGeometry>
        </mxCell>
        <mxCell id="Rq11PXfO91AjFJ7hU85B-347" value="UI7" style="text;html=1;align=center;verticalAlign=middle;whiteSpace=wrap;rounded=0;fontColor=#0a0a0a;fontStyle=1;strokeColor=none;" vertex="1" parent="1">
          <mxGeometry x="760" y="1030" width="40" height="20" as="geometry" />
        </mxCell>
      </root>
    </mxGraphModel>
  </diagram>
</mxfile>
